<svg width="3724" height="1421" xmlns="http://www.w3.org/2000/svg" xmlns:xlink="http://www.w3.org/1999/xlink" xml:space="preserve" overflow="hidden"><defs><clipPath id="clip0"><rect x="219" y="693" width="3724" height="1421"/></clipPath><linearGradient x1="1343" y1="693" x2="1343" y2="1782" gradientUnits="userSpaceOnUse" spreadMethod="reflect" id="fill1"><stop offset="0" stop-color="#05BDDA"/><stop offset="0.0163934" stop-color="#05BCD9"/><stop offset="0.0327869" stop-color="#06BCD9"/><stop offset="0.0491803" stop-color="#07BCD9"/><stop offset="0.0655738" stop-color="#07BCD9"/><stop offset="0.0819672" stop-color="#08BCD9"/><stop offset="0.0983607" stop-color="#09BCD9"/><stop offset="0.114754" stop-color="#09BBD8"/><stop offset="0.131148" stop-color="#0ABBD8"/><stop offset="0.147541" stop-color="#0BBBD8"/><stop offset="0.163934" stop-color="#0BBBD7"/><stop offset="0.180328" stop-color="#0CBAD7"/><stop offset="0.196721" stop-color="#0DBAD7"/><stop offset="0.213115" stop-color="#0DB9D6"/><stop offset="0.229508" stop-color="#0EB9D6"/><stop offset="0.245902" stop-color="#0EB8D5"/><stop offset="0.262295" stop-color="#0FB8D4"/><stop offset="0.278689" stop-color="#0FB7D4"/><stop offset="0.295082" stop-color="#10B7D3"/><stop offset="0.311475" stop-color="#11B6D3"/><stop offset="0.327869" stop-color="#11B5D2"/><stop offset="0.344262" stop-color="#12B5D1"/><stop offset="0.360656" stop-color="#12B4D0"/><stop offset="0.377049" stop-color="#13B3D0"/><stop offset="0.393443" stop-color="#13B2CF"/><stop offset="0.409836" stop-color="#14B1CE"/><stop offset="0.42623" stop-color="#14B1CD"/><stop offset="0.442623" stop-color="#14B0CC"/><stop offset="0.459016" stop-color="#15AFCB"/><stop offset="0.47541" stop-color="#15AECA"/><stop offset="0.491803" stop-color="#16ADC9"/><stop offset="0.508197" stop-color="#16ACC8"/><stop offset="0.52459" stop-color="#17ABC7"/><stop offset="0.540984" stop-color="#17AAC6"/><stop offset="0.557377" stop-color="#17A9C5"/><stop offset="0.57377" stop-color="#18A8C4"/><stop offset="0.590164" stop-color="#18A7C2"/><stop offset="0.606557" stop-color="#18A5C1"/><stop offset="0.622951" stop-color="#19A4C0"/><stop offset="0.639344" stop-color="#19A3BF"/><stop offset="0.655738" stop-color="#19A2BD"/><stop offset="0.672131" stop-color="#1AA0BC"/><stop offset="0.688525" stop-color="#1A9FBB"/><stop offset="0.704918" stop-color="#1A9EB9"/><stop offset="0.721311" stop-color="#1A9DB8"/><stop offset="0.737705" stop-color="#1B9BB6"/><stop offset="0.754098" stop-color="#1B9AB5"/><stop offset="0.770492" stop-color="#1B98B3"/><stop offset="0.786885" stop-color="#1B97B2"/><stop offset="0.803279" stop-color="#1B95B0"/><stop offset="0.819672" stop-color="#1C94AF"/><stop offset="0.836066" stop-color="#1C92AD"/><stop offset="0.852459" stop-color="#1C91AC"/><stop offset="0.868852" stop-color="#1C8FAA"/><stop offset="0.885246" stop-color="#1C8EA8"/><stop offset="0.901639" stop-color="#1C8CA6"/><stop offset="0.918033" stop-color="#1C8AA5"/><stop offset="0.934426" stop-color="#1C89A3"/><stop offset="0.95082" stop-color="#1C87A1"/><stop offset="0.967213" stop-color="#1C859F"/><stop offset="0.983607" stop-color="#1C839D"/><stop offset="1" stop-color="#1D829C"/></linearGradient><linearGradient x1="1343.06" y1="448.25" x2="1343.06" y2="2026.75" gradientUnits="userSpaceOnUse" spreadMethod="reflect" id="fill2"><stop offset="0" stop-color="#FFFFFF"/><stop offset="0.142857" stop-color="#FFFFFE"/><stop offset="0.285714" stop-color="#FFFFFE"/><stop offset="0.428571" stop-color="#FFFFFD"/><stop offset="0.571429" stop-color="#FFFFFC"/><stop offset="0.714286" stop-color="#FFFFFA"/><stop offset="0.857143" stop-color="#FFFFF9"/><stop offset="1" stop-color="#FFFFF7"/></linearGradient><linearGradient x1="3223" y1="693" x2="3223" y2="1782" gradientUnits="userSpaceOnUse" spreadMethod="reflect" id="fill3"><stop offset="0" stop-color="#05F93F"/><stop offset="0.00990099" stop-color="#05F83E"/><stop offset="0.019802" stop-color="#05F83E"/><stop offset="0.029703" stop-color="#05F83E"/><stop offset="0.039604" stop-color="#05F83E"/><stop offset="0.049505" stop-color="#05F83E"/><stop offset="0.0594059" stop-color="#05F83E"/><stop offset="0.0693069" stop-color="#05F83E"/><stop offset="0.0792079" stop-color="#05F83E"/><stop offset="0.0891089" stop-color="#05F73E"/><stop offset="0.0990099" stop-color="#05F73E"/><stop offset="0.108911" stop-color="#05F73E"/><stop offset="0.118812" stop-color="#06F73E"/><stop offset="0.128713" stop-color="#06F63E"/><stop offset="0.138614" stop-color="#06F63E"/><stop offset="0.148515" stop-color="#06F63D"/><stop offset="0.158416" stop-color="#06F53D"/><stop offset="0.168317" stop-color="#06F53D"/><stop offset="0.178218" stop-color="#06F43D"/><stop offset="0.188119" stop-color="#06F43D"/><stop offset="0.19802" stop-color="#06F43D"/><stop offset="0.207921" stop-color="#06F33D"/><stop offset="0.217822" stop-color="#06F33C"/><stop offset="0.227723" stop-color="#06F23C"/><stop offset="0.237624" stop-color="#06F23C"/><stop offset="0.247525" stop-color="#07F13C"/><stop offset="0.257426" stop-color="#07F03C"/><stop offset="0.267327" stop-color="#07F03B"/><stop offset="0.277228" stop-color="#07EF3B"/><stop offset="0.287129" stop-color="#07EF3B"/><stop offset="0.29703" stop-color="#07EE3B"/><stop offset="0.306931" stop-color="#07ED3B"/><stop offset="0.316832" stop-color="#07ED3A"/><stop offset="0.326733" stop-color="#07EC3A"/><stop offset="0.336634" stop-color="#07EB3A"/><stop offset="0.346535" stop-color="#07EB3A"/><stop offset="0.356436" stop-color="#07EA39"/><stop offset="0.366337" stop-color="#07E939"/><stop offset="0.376238" stop-color="#07E839"/><stop offset="0.386139" stop-color="#07E738"/><stop offset="0.39604" stop-color="#08E738"/><stop offset="0.405941" stop-color="#08E638"/><stop offset="0.415842" stop-color="#08E538"/><stop offset="0.425743" stop-color="#08E437"/><stop offset="0.435644" stop-color="#08E337"/><stop offset="0.445545" stop-color="#08E237"/><stop offset="0.455446" stop-color="#08E136"/><stop offset="0.465347" stop-color="#08E036"/><stop offset="0.475248" stop-color="#08DF36"/><stop offset="0.485149" stop-color="#08DE35"/><stop offset="0.49505" stop-color="#08DD35"/><stop offset="0.504951" stop-color="#08DC35"/><stop offset="0.514852" stop-color="#08DB34"/><stop offset="0.524752" stop-color="#08DA34"/><stop offset="0.534653" stop-color="#08D933"/><stop offset="0.544554" stop-color="#08D833"/><stop offset="0.554455" stop-color="#08D733"/><stop offset="0.564356" stop-color="#08D632"/><stop offset="0.574257" stop-color="#08D432"/><stop offset="0.584158" stop-color="#09D331"/><stop offset="0.594059" stop-color="#09D231"/><stop offset="0.60396" stop-color="#09D131"/><stop offset="0.613861" stop-color="#09D030"/><stop offset="0.623762" stop-color="#09CE30"/><stop offset="0.633663" stop-color="#09CD2F"/><stop offset="0.643564" stop-color="#09CC2F"/><stop offset="0.653465" stop-color="#09CB2E"/><stop offset="0.663366" stop-color="#09C92E"/><stop offset="0.673267" stop-color="#09C82D"/><stop offset="0.683168" stop-color="#09C72D"/><stop offset="0.693069" stop-color="#09C52C"/><stop offset="0.70297" stop-color="#09C42C"/><stop offset="0.712871" stop-color="#09C22B"/><stop offset="0.722772" stop-color="#09C12B"/><stop offset="0.732673" stop-color="#09C02A"/><stop offset="0.742574" stop-color="#09BE2A"/><stop offset="0.752475" stop-color="#09BD29"/><stop offset="0.762376" stop-color="#09BB29"/><stop offset="0.772277" stop-color="#09BA28"/><stop offset="0.782178" stop-color="#09B828"/><stop offset="0.792079" stop-color="#09B727"/><stop offset="0.80198" stop-color="#09B527"/><stop offset="0.811881" stop-color="#09B326"/><stop offset="0.821782" stop-color="#09B226"/><stop offset="0.831683" stop-color="#09B025"/><stop offset="0.841584" stop-color="#09AF24"/><stop offset="0.851485" stop-color="#09AD24"/><stop offset="0.861386" stop-color="#09AB23"/><stop offset="0.871287" stop-color="#09AA23"/><stop offset="0.881188" stop-color="#09A822"/><stop offset="0.891089" stop-color="#09A621"/><stop offset="0.90099" stop-color="#09A521"/><stop offset="0.910891" stop-color="#09A320"/><stop offset="0.920792" stop-color="#09A120"/><stop offset="0.930693" stop-color="#099F1F"/><stop offset="0.940594" stop-color="#099E1E"/><stop offset="0.950495" stop-color="#099C1E"/><stop offset="0.960396" stop-color="#099A1D"/><stop offset="0.970297" stop-color="#09981C"/><stop offset="0.980198" stop-color="#09961C"/><stop offset="0.990099" stop-color="#09941B"/><stop offset="1" stop-color="#0A931B"/></linearGradient><linearGradient x1="3223.13" y1="448.25" x2="3223.13" y2="2026.75" gradientUnits="userSpaceOnUse" spreadMethod="reflect" id="fill4"><stop offset="0" stop-color="#FFFFFF"/><stop offset="0.142857" stop-color="#FFFFFE"/><stop offset="0.285714" stop-color="#FFFFFE"/><stop offset="0.428571" stop-color="#FFFFFD"/><stop offset="0.571429" stop-color="#FFFFFC"/><stop offset="0.714286" stop-color="#FFFFFA"/><stop offset="0.857143" stop-color="#FFFFF9"/><stop offset="1" stop-color="#FFFFF7"/></linearGradient><linearGradient x1="3086.33" y1="1849.07" x2="3086.33" y2="2025.07" gradientUnits="userSpaceOnUse" spreadMethod="reflect" id="fill5"><stop offset="0" stop-color="#7F7F7F"/><stop offset="0.0142857" stop-color="#7E7E7E"/><stop offset="0.0285714" stop-color="#7E7E7E"/><stop offset="0.0428571" stop-color="#7E7E7E"/><stop offset="0.0571429" stop-color="#7E7E7E"/><stop offset="0.0714286" stop-color="#7E7E7E"/><stop offset="0.0857143" stop-color="#7E7E7E"/><stop offset="0.1" stop-color="#7E7E7E"/><stop offset="0.114286" stop-color="#7D7D7D"/><stop offset="0.128571" stop-color="#7D7D7D"/><stop offset="0.142857" stop-color="#7D7D7D"/><stop offset="0.157143" stop-color="#7C7C7C"/><stop offset="0.171429" stop-color="#7C7C7C"/><stop offset="0.185714" stop-color="#7C7B7B"/><stop offset="0.2" stop-color="#7B7B7B"/><stop offset="0.214286" stop-color="#7B7B7B"/><stop offset="0.228571" stop-color="#7A7A7A"/><stop offset="0.242857" stop-color="#7A7A7A"/><stop offset="0.257143" stop-color="#797979"/><stop offset="0.271429" stop-color="#797878"/><stop offset="0.285714" stop-color="#787878"/><stop offset="0.3" stop-color="#777777"/><stop offset="0.314286" stop-color="#777676"/><stop offset="0.328571" stop-color="#767676"/><stop offset="0.342857" stop-color="#757575"/><stop offset="0.357143" stop-color="#757474"/><stop offset="0.371429" stop-color="#747373"/><stop offset="0.385714" stop-color="#737373"/><stop offset="0.4" stop-color="#727272"/><stop offset="0.414286" stop-color="#717171"/><stop offset="0.428571" stop-color="#717070"/><stop offset="0.442857" stop-color="#706F6F"/><stop offset="0.457143" stop-color="#6F6E6E"/><stop offset="0.471429" stop-color="#6E6D6D"/><stop offset="0.485714" stop-color="#6D6C6C"/><stop offset="0.5" stop-color="#6C6B6B"/><stop offset="0.514286" stop-color="#6B6A6A"/><stop offset="0.528571" stop-color="#6A6969"/><stop offset="0.542857" stop-color="#696868"/><stop offset="0.557143" stop-color="#686767"/><stop offset="0.571429" stop-color="#676666"/><stop offset="0.585714" stop-color="#666464"/><stop offset="0.6" stop-color="#646363"/><stop offset="0.614286" stop-color="#636262"/><stop offset="0.628571" stop-color="#626161"/><stop offset="0.642857" stop-color="#615F5F"/><stop offset="0.657143" stop-color="#605E5E"/><stop offset="0.671429" stop-color="#5E5D5D"/><stop offset="0.685714" stop-color="#5D5C5C"/><stop offset="0.7" stop-color="#5C5A5A"/><stop offset="0.714286" stop-color="#5A5959"/><stop offset="0.728571" stop-color="#595757"/><stop offset="0.742857" stop-color="#585656"/><stop offset="0.757143" stop-color="#565454"/><stop offset="0.771429" stop-color="#555353"/><stop offset="0.785714" stop-color="#535151"/><stop offset="0.8" stop-color="#525050"/><stop offset="0.814286" stop-color="#504E4E"/><stop offset="0.828571" stop-color="#4F4D4D"/><stop offset="0.842857" stop-color="#4D4B4B"/><stop offset="0.857143" stop-color="#4C4949"/><stop offset="0.871429" stop-color="#4A4848"/><stop offset="0.885714" stop-color="#484646"/><stop offset="0.9" stop-color="#474444"/><stop offset="0.914286" stop-color="#454242"/><stop offset="0.928571" stop-color="#434141"/><stop offset="0.942857" stop-color="#423F3F"/><stop offset="0.957143" stop-color="#403D3D"/><stop offset="0.971429" stop-color="#3E3B3B"/><stop offset="0.985714" stop-color="#3C3939"/><stop offset="1" stop-color="#3B3838"/></linearGradient></defs><g clip-path="url(#clip0)" transform="translate(-219 -693)"><path d="M219 785.054C219 734.214 260.214 693 311.054 693L2374.95 693C2425.79 693 2467 734.214 2467 785.054L2467 1689.95C2467 1740.79 2425.79 1782 2374.95 1782L311.054 1782C260.214 1782 219 1740.79 219 1689.95Z" fill="url(#fill1)" fill-rule="evenodd"/><path d="M1562.81 1247.93C1528.99 1247.93 1501.17 1261.2 1479.34 1287.74 1458.79 1312.57 1448.52 1342.11 1448.52 1376.35 1448.52 1411.02 1458.79 1440.77 1479.34 1465.6 1501.17 1492.14 1528.99 1505.41 1562.81 1505.41 1596.2 1505.41 1623.81 1492.14 1645.64 1465.6 1665.76 1440.77 1675.82 1411.02 1675.82 1376.35 1675.82 1342.53 1665.33 1312.68 1644.35 1286.78 1623.38 1260.88 1596.2 1247.93 1562.81 1247.93ZM1561.53 1049.53C1658.27 1049.53 1736.6 1079.81 1796.53 1140.38 1856.46 1200.95 1886.42 1279.61 1886.42 1376.35 1886.42 1473.95 1856.57 1553.14 1796.85 1613.92 1737.14 1674.71 1658.69 1705.1 1561.53 1705.1 1467.35 1705.1 1389.87 1675.14 1329.09 1615.21 1268.3 1555.28 1237.91 1478.23 1237.91 1384.06 1237.91 1284.75 1267.02 1204.16 1325.24 1142.31 1383.45 1080.45 1462.22 1049.53 1561.53 1049.53ZM2003.26 859.468C2014.82 859.468 2031.3 862.036 2052.7 867.173 2077.1 872.738 2094.01 875.948 2103.42 876.804 2125.25 879.801 2158.22 883.867 2202.31 889.004 2213.01 889.86 2218.36 893.499 2218.36 899.919 2218.36 917.042 2216.97 942.939 2214.18 977.612 2211.4 1012.29 2210.01 1038.4 2210.01 1055.95 2210.01 1076.92 2216.22 1087.41 2228.63 1087.41 2243.61 1087.41 2266.3 1086.77 2296.69 1085.48 2327.08 1084.2 2349.99 1083.56 2365.4 1083.56 2374.81 1083.56 2379.52 1086.77 2379.52 1093.19 2379.52 1103.03 2378.45 1117.8 2376.31 1137.49 2374.17 1157.18 2373.1 1171.95 2373.1 1181.8 2373.1 1192.07 2373.32 1207.05 2373.74 1226.74 2374.17 1246.43 2374.39 1261.42 2374.39 1271.69 2374.39 1280.68 2368.18 1285.17 2355.76 1285.17 2347.2 1285.17 2332.86 1284.85 2312.75 1284.21 2292.63 1283.57 2278.29 1283.25 2269.73 1283.25L2221.57 1283.25C2215.15 1283.25 2211.94 1292.66 2211.94 1311.5 2211.94 1321.77 2211.94 1336.97 2211.94 1357.09 2212.36 1377.63 2212.58 1392.83 2212.58 1402.68 2212.58 1438.63 2216.65 1463.46 2224.78 1477.16 2236.34 1495.56 2259.02 1504.77 2292.84 1504.77 2303.54 1504.77 2318.84 1502.31 2338.75 1497.38 2358.65 1492.46 2372.67 1490 2380.81 1490 2389.8 1490 2394.29 1494.71 2394.29 1504.13 2394.29 1516.97 2392.69 1536.44 2389.47 1562.56 2386.26 1588.67 2384.66 1607.82 2384.66 1620.02 2384.66 1632.22 2383.37 1640.03 2380.81 1643.46 2378.24 1646.88 2371.18 1651.81 2359.62 1658.23 2304.4 1688.62 2243.19 1703.82 2175.98 1703.82 2052.27 1703.82 1990.42 1656.52 1990.42 1561.91 1990.42 1533.66 1991.49 1491.18 1993.63 1434.46 1995.77 1377.74 1996.84 1335.26 1996.84 1307 1996.84 1288.17 1985.92 1278.75 1964.09 1278.75 1962.38 1278.75 1959.6 1278.75 1955.74 1278.75 1951.89 1279.18 1949.11 1279.39 1947.4 1279.39 1931.13 1279.39 1923 1273.62 1923 1262.06 1923 1255.21 1923.53 1244.72 1924.6 1230.6 1925.67 1216.47 1926.21 1205.98 1926.21 1199.13 1926.21 1190.14 1925.67 1176.45 1924.6 1158.04 1923.53 1139.63 1923 1125.94 1923 1116.95 1923 1108.38 1936.69 1103.68 1964.09 1102.82 1979.5 1102.39 1987.85 1098.11 1989.13 1089.98 1991.7 1073.71 1992.56 1048.03 1991.7 1012.93 1989.99 957.708 1989.13 931.382 1989.13 933.95 1989.13 884.295 1993.84 859.468 2003.26 859.468ZM763.291 770.217C828.356 770.217 889.568 782.631 946.928 807.458 1009 834.854 1057.8 873.38 1093.32 923.035 1100.6 933.308 1104.24 940.585 1104.24 944.866 1104.24 958.564 1085.08 989.277 1046.77 1037.01 1008.46 1084.73 983.741 1108.6 972.612 1108.6 970.043 1108.6 960.198 1099.82 943.076 1082.27 922.101 1061.3 900.698 1045.03 878.867 1033.47 846.334 1015.92 810.377 1007.15 770.996 1007.15 706.787 1007.15 655.847 1031.12 618.178 1079.06 583.077 1123.15 565.527 1178.16 565.527 1244.08 565.527 1313.85 583.719 1369.07 620.104 1409.74 657.774 1451.69 711.067 1472.66 779.985 1472.66 823.647 1472.66 872.446 1461.75 926.381 1439.92 925.097 1425.79 921.245 1389.83 914.824 1332.05 909.259 1287.53 906.477 1251.57 906.477 1224.17 906.477 1216.04 909.259 1211.12 914.824 1209.41 916.964 1208.55 920.389 1208.12 925.097 1208.12 937.511 1208.12 956.239 1209.3 981.28 1211.65 1006.32 1214.01 1025.26 1215.19 1038.1 1215.19 1051.8 1215.19 1072.35 1214.22 1099.75 1212.3 1127.14 1210.37 1147.69 1209.41 1161.39 1209.41 1172.09 1209.41 1177.44 1216.47 1177.44 1230.6 1177.44 1251.14 1176.26 1282.18 1173.91 1323.7 1171.55 1365.22 1170.38 1396.25 1170.38 1416.8 1170.38 1472.02 1174.44 1554.64 1182.58 1664.65L1183.22 1671.71C1184.07 1683.27 1178.08 1689.05 1165.24 1689.05 1157.11 1689.05 1133.67 1684.34 1094.93 1674.92 1056.19 1665.5 1032.33 1659.08 1023.34 1655.66 933.872 1690.76 848.046 1708.31 765.859 1708.31 633.588 1708.31 525.075 1664.22 440.319 1576.04 356.42 1489.14 314.47 1379.35 314.47 1246.65 314.47 1110.95 355.135 998.373 436.467 908.909 520.367 816.448 629.308 770.217 763.291 770.217Z" fill="url(#fill2)" fill-rule="evenodd"/><text fill="#000000" fill-opacity="0" font-family="Arial,Arial_MSFontService,sans-serif" font-size="938.093" x="314.47" y="1591.05">Got</text><path d="M2590 785.054C2590 734.214 2631.21 693 2682.05 693L3763.95 693C3814.79 693 3856 734.214 3856 785.054L3856 1689.95C3856 1740.79 3814.79 1782 3763.95 1782L2682.05 1782C2631.21 1782 2590 1740.79 2590 1689.95Z" fill="url(#fill3)" fill-rule="evenodd"/><path d="M2833.77 1672.35 2833.82 1673.08 2833.82 1673.11C2833.78 1673.25 2833.77 1673 2833.77 1672.35ZM3263.65 859.468C3275.21 859.468 3291.69 862.036 3313.09 867.173 3337.49 872.738 3354.4 875.948 3363.82 876.804 3385.65 879.801 3418.61 883.867 3462.7 889.004 3473.4 889.86 3478.75 893.499 3478.75 899.919 3478.75 917.042 3477.36 942.939 3474.58 977.612 3471.79 1012.29 3470.4 1038.4 3470.4 1055.95 3470.4 1076.92 3476.61 1087.41 3489.02 1087.41 3504.01 1087.41 3526.69 1086.77 3557.08 1085.48 3587.48 1084.2 3610.38 1083.56 3625.79 1083.56 3635.21 1083.56 3639.91 1086.77 3639.91 1093.19 3639.91 1103.03 3638.84 1117.8 3636.7 1137.49 3634.56 1157.18 3633.49 1171.95 3633.49 1181.8 3633.49 1192.07 3633.71 1207.05 3634.14 1226.74 3634.56 1246.43 3634.78 1261.42 3634.78 1271.69 3634.78 1280.68 3628.57 1285.17 3616.16 1285.17 3607.6 1285.17 3593.26 1284.85 3573.14 1284.21 3553.02 1283.57 3538.68 1283.25 3530.12 1283.25L3481.96 1283.25C3475.54 1283.25 3472.33 1292.66 3472.33 1311.5 3472.33 1321.77 3472.33 1336.97 3472.33 1357.09 3472.76 1377.63 3472.97 1392.83 3472.97 1402.68 3472.97 1438.63 3477.04 1463.46 3485.17 1477.16 3496.73 1495.56 3519.42 1504.77 3553.23 1504.77 3563.93 1504.77 3579.24 1502.31 3599.14 1497.38 3619.05 1492.46 3633.06 1490 3641.2 1490 3650.19 1490 3654.68 1494.71 3654.68 1504.13 3654.68 1516.97 3653.08 1536.44 3649.87 1562.56 3646.66 1588.67 3645.05 1607.82 3645.05 1620.02 3645.05 1632.22 3643.77 1640.03 3641.2 1643.46 3638.63 1646.88 3631.57 1651.81 3620.01 1658.23 3564.79 1688.62 3503.58 1703.82 3436.37 1703.82 3312.66 1703.82 3250.81 1656.52 3250.81 1561.91 3250.81 1533.66 3251.88 1491.18 3254.02 1434.46 3256.16 1377.74 3257.23 1335.26 3257.23 1307 3257.23 1288.17 3246.31 1278.75 3224.48 1278.75 3222.77 1278.75 3219.99 1278.75 3216.13 1278.75 3212.28 1279.18 3209.5 1279.39 3207.79 1279.39 3191.52 1279.39 3183.39 1273.62 3183.39 1262.06 3183.39 1255.21 3183.92 1244.72 3184.99 1230.6 3186.06 1216.47 3186.6 1205.98 3186.6 1199.13 3186.6 1190.14 3186.06 1176.45 3184.99 1158.04 3183.92 1139.63 3183.39 1125.94 3183.39 1116.95 3183.39 1108.38 3197.09 1103.68 3224.48 1102.82 3239.89 1102.39 3248.24 1098.11 3249.52 1089.98 3252.09 1073.71 3252.95 1048.03 3252.09 1012.93 3250.38 957.708 3249.52 931.382 3249.52 933.95 3249.52 884.295 3254.23 859.468 3263.65 859.468ZM2856.88 791.406C2870.15 791.406 2890.16 792.048 2916.92 793.333 2943.67 794.617 2963.68 795.259 2976.95 795.259 2990.22 795.259 3009.81 794.617 3035.7 793.333 3061.6 792.048 3081.18 791.406 3094.45 791.406 3106.87 791.406 3113.08 796.115 3113.08 805.532 3113.08 851.335 3110.61 920.038 3105.69 1011.64 3100.77 1103.25 3098.31 1171.95 3098.31 1217.75 3098.31 1268.26 3099.59 1344.25 3102.16 1445.7 3104.73 1547.15 3106.01 1623.13 3106.01 1673.64 3106.01 1682.2 3104.09 1687.55 3100.23 1689.69 3099.38 1690.12 3093.81 1690.97 3083.54 1692.26 3055.72 1695.68 3018.47 1697.4 2971.82 1697.4 2909.32 1697.4 2869.51 1695.68 2852.39 1692.26 2841.52 1690.01 2835.41 1684.65 2834.06 1676.18L2833.82 1673.08 2833.86 1672.84C2834.28 1669.09 2836.17 1631.26 2839.54 1559.35 2847.25 1385.98 2851.1 1272.12 2851.1 1217.75 2851.1 1171.95 2849.6 1103.25 2846.61 1011.64 2843.61 920.038 2842.11 851.335 2842.11 805.532 2842.11 796.115 2847.04 791.406 2856.88 791.406Z" fill="url(#fill4)" fill-rule="evenodd"/><text fill="#000000" fill-opacity="0" font-family="Arial,Arial_MSFontService,sans-serif" font-size="912.41" x="2833.77" y="1589.76">It</text><path d="M2740.12 1946.49C2728.06 1946.49 2722.03 1947.14 2722.03 1948.43L2722.03 1960.2C2722.03 1961.93 2722.08 1964.56 2722.18 1968.1 2722.27 1971.64 2722.32 1974.29 2722.32 1976.07 2722.32 1976.54 2723.85 1976.9 2726.92 1977.14 2729.98 1977.38 2734.52 1977.5 2740.55 1977.5 2748.11 1977.5 2753.54 1976.52 2756.85 1974.56 2761.2 1971.97 2763.38 1967.24 2763.38 1960.35 2763.38 1954.51 2760.77 1950.56 2755.55 1948.5 2752.25 1947.16 2747.11 1946.49 2740.12 1946.49ZM3512.24 1935.8C3506.49 1935.8 3501.73 1937.95 3497.95 1942.26 3494.36 1946.42 3492.57 1951.42 3492.57 1957.26 3492.57 1963 3494.39 1967.98 3498.02 1972.19 3501.85 1976.64 3506.59 1978.86 3512.24 1978.86 3517.93 1978.86 3522.67 1976.64 3526.45 1972.19 3530.04 1967.98 3531.83 1963 3531.83 1957.26 3531.83 1951.42 3530.04 1946.45 3526.45 1942.33 3522.72 1937.98 3517.98 1935.8 3512.24 1935.8ZM2823.24 1935.8C2817.49 1935.8 2812.73 1937.95 2808.95 1942.26 2805.36 1946.42 2803.57 1951.42 2803.57 1957.26 2803.57 1963 2805.39 1967.98 2809.02 1972.19 2812.85 1976.64 2817.59 1978.86 2823.24 1978.86 2828.93 1978.86 2833.67 1976.64 2837.45 1972.19 2841.04 1967.98 2842.83 1963 2842.83 1957.26 2842.83 1951.42 2841.04 1946.45 2837.45 1942.33 2833.72 1937.98 2828.98 1935.8 2823.24 1935.8ZM3057.6 1935.15C3051.71 1935.15 3046.86 1937.45 3043.03 1942.04 3039.39 1946.35 3037.57 1951.52 3037.57 1957.55 3037.57 1963.29 3039.46 1968.29 3043.24 1972.55 3047.12 1977.05 3051.91 1979.3 3057.6 1979.3 3063.34 1979.3 3068.08 1977.02 3071.81 1972.48 3075.26 1968.22 3076.98 1963.15 3076.98 1957.26 3076.98 1951.52 3075.21 1946.47 3071.67 1942.11 3067.89 1937.47 3063.2 1935.15 3057.6 1935.15ZM2389.94 1935.01C2384.78 1935.01 2380.59 1937.07 2377.38 1941.18 2374.46 1944.91 2373.01 1949.44 2373.01 1954.75 2373.01 1959.96 2374.49 1964.46 2377.46 1968.24 2380.66 1972.36 2384.82 1974.41 2389.94 1974.41 2395.02 1974.41 2399.18 1972.36 2402.43 1968.24 2405.45 1964.46 2406.96 1959.96 2406.96 1954.75 2406.96 1949.39 2405.5 1944.84 2402.58 1941.11 2399.37 1937.04 2395.16 1935.01 2389.94 1935.01ZM3167.37 1934C3162.97 1934 3159.06 1935.77 3155.63 1939.32 3152.21 1942.86 3150.5 1946.83 3150.5 1951.23 3150.5 1952.24 3151.36 1952.74 3153.09 1952.74 3160.17 1952.74 3168.64 1952.02 3178.5 1950.58 3181.27 1950.2 3182.66 1949.72 3182.66 1949.15 3182.66 1945.18 3181.09 1941.66 3177.96 1938.6 3174.82 1935.54 3171.29 1934 3167.37 1934ZM2624.37 1934C2619.97 1934 2616.06 1935.77 2612.63 1939.32 2609.21 1942.86 2607.5 1946.83 2607.5 1951.23 2607.5 1952.24 2608.36 1952.74 2610.09 1952.74 2617.17 1952.74 2625.64 1952.02 2635.5 1950.58 2638.27 1950.2 2639.66 1949.72 2639.66 1949.15 2639.66 1945.18 2638.09 1941.66 2634.96 1938.6 2631.82 1935.54 2628.29 1934 2624.37 1934ZM2872.54 1924.31C2873.93 1924.31 2876.01 1924.34 2878.78 1924.39 2881.56 1924.43 2883.64 1924.46 2885.03 1924.46 2885.99 1924.46 2886.47 1924.98 2886.47 1926.04 2886.47 1927.9 2886.15 1931.01 2885.53 1935.37 2884.86 1940.01 2884.5 1943.29 2884.46 1945.2 2884.31 1948.07 2884.24 1951.23 2884.24 1954.68 2884.24 1963.05 2884.84 1968.67 2886.03 1971.54 2888.09 1976.71 2892.66 1979.3 2899.74 1979.3 2902.76 1979.3 2906.32 1977.81 2910.44 1974.85 2914.79 1971.73 2917.04 1968.74 2917.19 1965.87 2917.43 1962.28 2917.54 1949.65 2917.54 1927.97 2917.54 1925.63 2918.53 1924.46 2920.49 1924.46L2932.33 1924.46C2933.72 1924.46 2934.41 1925.29 2934.41 1926.97 2934.41 1930.46 2934.27 1935.74 2933.98 1942.8 2933.69 1949.85 2933.55 1955.15 2933.55 1958.7 2933.55 1962.19 2933.66 1967.42 2933.87 1974.38 2934.09 1981.34 2934.2 1986.57 2934.2 1990.06 2934.2 1991.02 2933.74 1991.64 2932.83 1991.93 2932.45 1992.02 2927.59 1992.07 2918.26 1992.07 2917.69 1992.07 2917.34 1990.28 2917.22 1986.69 2917.1 1983.1 2916.83 1981.31 2916.4 1981.31 2916.16 1981.31 2915.8 1981.52 2915.32 1981.95 2907.33 1988.89 2899.43 1992.36 2891.63 1992.36 2881.06 1992.36 2874.07 1988.53 2870.67 1980.87 2868.57 1976.14 2867.52 1967.62 2867.52 1955.32 2867.52 1944.22 2868.4 1934.82 2870.17 1927.11 2870.6 1925.25 2871.39 1924.31 2872.54 1924.31ZM2514.74 1924.31C2515.6 1924.31 2516.93 1924.43 2518.72 1924.67 2520.51 1924.91 2521.87 1925.03 2522.78 1925.03 2523.68 1925.03 2525.04 1924.91 2526.83 1924.67 2528.62 1924.43 2529.98 1924.31 2530.89 1924.31 2531.7 1924.31 2532.11 1924.77 2532.11 1925.68 2532.11 1929.36 2531.88 1934.93 2531.42 1942.37 2530.97 1949.81 2530.74 1955.39 2530.74 1959.13 2530.74 1962.62 2530.81 1967.85 2530.96 1974.81 2531.1 1981.77 2531.17 1986.98 2531.17 1990.42 2531.17 1991.43 2530.74 1991.93 2529.88 1991.93L2515.88 1991.93C2514.88 1991.93 2514.38 1990.95 2514.38 1988.99 2514.38 1985.68 2514.46 1980.72 2514.63 1974.09 2514.8 1967.46 2514.88 1962.48 2514.88 1959.13 2514.88 1955.39 2514.6 1949.79 2514.05 1942.33 2513.5 1934.87 2513.23 1929.27 2513.23 1925.53 2513.23 1924.72 2513.73 1924.31 2514.74 1924.31ZM3596.78 1923.45 3610.49 1923.45C3611.26 1923.45 3611.64 1924.07 3611.64 1925.32 3611.64 1926.85 3611.57 1929.16 3611.43 1932.25 3611.28 1935.33 3611.21 1937.64 3611.21 1939.17 3611.21 1947.64 3611.35 1952.53 3611.64 1953.85 3611.93 1955.17 3614.18 1958.92 3618.39 1965.12 3622.6 1971.32 3625.02 1974.41 3625.64 1974.41 3625.78 1974.41 3626.21 1973.84 3626.93 1972.69 3633.01 1963.46 3636.28 1957.28 3636.76 1954.17 3637.19 1951.59 3637.41 1947.21 3637.41 1941.04 3637.41 1939.22 3637.27 1936.6 3636.98 1933.18 3636.69 1929.76 3636.55 1927.3 3636.55 1925.82 3636.55 1925.1 3637.03 1924.74 3637.98 1924.74 3639.42 1924.74 3641.55 1924.7 3644.37 1924.6 3647.19 1924.51 3649.32 1924.46 3650.76 1924.46 3651.81 1924.46 3652.46 1924.94 3652.7 1925.89 3653.08 1927.76 3653.27 1932.66 3653.27 1940.61 3653.27 1949.6 3652.77 1955.25 3651.76 1957.55 3650.42 1960.71 3646.88 1967 3641.14 1976.42 3634.92 1986.62 3631.16 1991.88 3629.87 1992.22 3629.49 1992.31 3627.58 1992.36 3624.13 1992.36 3621.79 1992.36 3620.42 1992.31 3620.04 1992.22 3618.56 1991.83 3612.86 1983.6 3602.96 1967.52 3600.23 1972.02 3597.48 1976.54 3594.7 1981.09 3590.2 1988.17 3587.33 1991.88 3586.09 1992.22 3585.71 1992.31 3584.13 1992.36 3581.35 1992.36 3578.53 1992.36 3576.92 1992.31 3576.54 1992.22 3575.06 1991.88 3571.3 1986.66 3565.27 1976.57 3559.58 1967.05 3556.13 1960.71 3554.94 1957.55 3553.84 1954.68 3553.29 1949.03 3553.29 1940.61 3553.29 1933.57 3553.53 1928.76 3554 1926.18 3554.24 1925.13 3554.84 1924.6 3555.8 1924.6 3557.23 1924.6 3559.39 1924.65 3562.26 1924.74 3565.13 1924.84 3567.28 1924.89 3568.72 1924.89 3569.63 1924.89 3570.08 1925.63 3570.08 1927.11 3570.08 1928.17 3570.03 1929.76 3569.94 1931.89 3569.84 1934.02 3569.79 1935.61 3569.79 1936.66 3569.79 1944.99 3570.03 1950.87 3570.51 1954.32 3570.94 1957.33 3574.7 1963.65 3581.78 1973.27 3582.64 1974.41 3583.15 1974.99 3583.29 1974.99 3583.43 1974.99 3583.86 1974.46 3584.58 1973.41 3590.8 1964.37 3594.34 1958.19 3595.2 1954.89 3595.78 1952.59 3596.07 1947.45 3596.07 1939.46 3596.07 1937.83 3595.97 1935.42 3595.78 1932.21 3595.59 1929 3595.49 1926.61 3595.49 1925.03 3595.49 1923.98 3595.92 1923.45 3596.78 1923.45ZM3445.58 1922.3C3446.34 1922.3 3446.85 1923.72 3447.09 1926.54 3447.33 1929.36 3447.76 1930.77 3448.38 1930.77 3448.47 1930.77 3448.59 1930.73 3448.74 1930.63 3450.7 1929.39 3452.66 1928.14 3454.62 1926.9 3456.78 1925.61 3458.98 1924.65 3461.23 1924.03 3463.09 1923.45 3465.49 1923.17 3468.4 1923.17 3472.14 1923.17 3474 1923.67 3474 1924.67 3474 1929.94 3473.64 1934.72 3472.93 1939.03 3472.78 1940.13 3472.3 1940.68 3471.49 1940.68 3470.49 1940.68 3468.97 1940.57 3466.93 1940.36 3464.9 1940.14 3463.36 1940.03 3462.3 1940.03 3456.27 1940.03 3452.42 1941.73 3450.75 1945.13 3449.74 1947.19 3449.24 1951.47 3449.24 1957.98L3449.24 1965.87C3449.24 1968.55 3449.35 1972.62 3449.56 1978.08 3449.78 1983.53 3449.89 1987.6 3449.89 1990.28 3449.89 1991.57 3449.34 1992.22 3448.24 1992.22 3446.75 1992.22 3444.5 1992.19 3441.49 1992.14 3438.47 1992.1 3436.22 1992.07 3434.74 1992.07 3433.64 1992.07 3433.09 1991.47 3433.09 1990.28 3433.09 1986.4 3433.15 1980.56 3433.27 1972.76 3433.39 1964.96 3433.45 1959.1 3433.45 1955.18 3433.45 1943.36 3432.35 1933.86 3430.15 1926.68 3430.05 1926.3 3430 1926.01 3430 1925.82 3430 1925.25 3430.31 1924.84 3430.94 1924.6 3432.71 1924.41 3435.2 1924.12 3438.4 1923.74 3443.57 1922.78 3445.96 1922.3 3445.58 1922.3ZM2990 1921.8C2999 1921.8 3005.15 1924.41 3008.45 1929.63 3010.89 1933.45 3012.11 1939.65 3012.11 1948.22 3012.11 1949.7 3012.07 1951.97 3012 1955.03 3011.93 1958.1 3011.9 1960.39 3011.9 1961.93 3011.9 1965.13 3011.94 1969.92 3012.04 1976.28 3012.13 1982.65 3012.18 1987.43 3012.18 1990.64 3012.18 1991.69 3011.7 1992.22 3010.75 1992.22 3009.17 1992.22 3006.81 1992.19 3003.68 1992.14 3000.54 1992.1 2998.19 1992.07 2996.61 1992.07 2995.75 1992.07 2995.31 1991.38 2995.31 1989.99 2995.31 1987.65 2995.39 1984.08 2995.53 1979.3 2995.67 1974.51 2995.75 1970.92 2995.75 1968.53 2995.75 1966.61 2995.72 1963.76 2995.67 1959.95 2995.63 1956.15 2995.6 1953.29 2995.6 1951.37 2995.6 1945.92 2994.81 1942.07 2993.23 1939.82 2991.32 1937.14 2987.78 1935.8 2982.61 1935.8 2980.22 1935.8 2976.89 1937.14 2972.63 1939.82 2968.14 1942.64 2965.89 1945.15 2965.89 1947.35L2965.89 1990.42C2965.89 1991.62 2965.43 1992.22 2964.52 1992.22 2962.99 1992.22 2960.69 1992.19 2957.63 1992.14 2954.57 1992.1 2952.27 1992.07 2950.74 1992.07 2949.74 1992.07 2949.23 1991.52 2949.23 1990.42 2949.23 1986.64 2949.29 1980.97 2949.41 1973.41 2949.53 1965.85 2949.59 1960.15 2949.59 1956.33 2949.59 1946.13 2948.52 1936.73 2946.36 1928.12 2946.22 1927.69 2946.15 1927.38 2946.15 1927.19 2946.15 1926.71 2946.46 1926.37 2947.08 1926.18 2947.42 1926.13 2950.15 1925.69 2955.3 1924.85 2960.44 1924.01 2963.13 1923.6 2963.37 1923.6 2963.66 1923.6 2963.85 1923.98 2963.95 1924.74 2964.19 1927.71 2964.74 1930.7 2965.6 1933.72 2968.09 1931.75 2971.36 1929.31 2975.43 1926.4 2980.46 1923.33 2985.31 1921.8 2990 1921.8ZM2478 1921.8C2487 1921.8 2493.15 1924.41 2496.45 1929.63 2498.89 1933.45 2500.11 1939.65 2500.11 1948.22 2500.11 1949.7 2500.07 1951.97 2500 1955.03 2499.93 1958.1 2499.9 1960.39 2499.9 1961.93 2499.9 1965.13 2499.94 1969.92 2500.04 1976.28 2500.13 1982.65 2500.18 1987.43 2500.18 1990.64 2500.18 1991.69 2499.7 1992.22 2498.75 1992.22 2497.17 1992.22 2494.81 1992.19 2491.68 1992.14 2488.54 1992.1 2486.19 1992.07 2484.61 1992.07 2483.75 1992.07 2483.31 1991.38 2483.31 1989.99 2483.31 1987.65 2483.39 1984.08 2483.53 1979.3 2483.67 1974.51 2483.75 1970.92 2483.75 1968.53 2483.75 1966.61 2483.72 1963.76 2483.67 1959.95 2483.63 1956.15 2483.6 1953.29 2483.6 1951.37 2483.6 1945.92 2482.81 1942.07 2481.23 1939.82 2479.32 1937.14 2475.78 1935.8 2470.61 1935.8 2468.22 1935.8 2464.89 1937.14 2460.63 1939.82 2456.14 1942.64 2453.89 1945.15 2453.89 1947.35L2453.89 1990.42C2453.89 1991.62 2453.43 1992.22 2452.52 1992.22 2450.99 1992.22 2448.69 1992.19 2445.63 1992.14 2442.57 1992.1 2440.27 1992.07 2438.74 1992.07 2437.74 1992.07 2437.23 1991.52 2437.23 1990.42 2437.23 1986.64 2437.29 1980.97 2437.41 1973.41 2437.53 1965.85 2437.59 1960.15 2437.59 1956.33 2437.59 1946.13 2436.52 1936.73 2434.36 1928.12 2434.22 1927.69 2434.15 1927.38 2434.15 1927.19 2434.15 1926.71 2434.46 1926.37 2435.08 1926.18 2435.42 1926.13 2438.15 1925.69 2443.3 1924.85 2448.44 1924.01 2451.13 1923.6 2451.37 1923.6 2451.66 1923.6 2451.85 1923.98 2451.95 1924.74 2452.19 1927.71 2452.74 1930.7 2453.6 1933.72 2456.09 1931.75 2459.36 1929.31 2463.43 1926.4 2468.46 1923.33 2473.31 1921.8 2478 1921.8ZM3276.48 1921.23C3277.15 1921.23 3277.65 1921.54 3277.96 1922.16 3278.27 1922.78 3278.87 1924.72 3279.75 1927.97 3280.64 1931.23 3281.08 1933.19 3281.08 1933.86 3281.08 1934.39 3280.62 1934.72 3279.71 1934.87 3276.65 1935.3 3273.57 1935.7 3270.46 1936.09 3266.77 1937.09 3264.93 1939.1 3264.93 1942.11 3264.93 1944.27 3266.87 1946.45 3270.74 1948.65 3276.48 1951.85 3280.12 1954.17 3281.65 1955.61 3285.58 1959.34 3287.54 1964.13 3287.54 1969.96 3287.54 1977.09 3284.69 1982.81 3279 1987.12 3273.83 1991.04 3267.54 1993 3260.12 1993 3257.25 1993 3255.62 1992.93 3255.24 1992.79 3254.43 1992.41 3254.02 1991.23 3254.02 1989.27 3254.02 1988.22 3253.89 1986.64 3253.62 1984.54 3253.36 1982.43 3253.23 1980.87 3253.23 1979.87 3253.23 1979.25 3253.66 1978.84 3254.52 1978.65 3255.14 1978.51 3256.03 1978.51 3257.18 1978.65 3258.66 1978.79 3259.38 1978.86 3259.33 1978.86 3268.37 1978.86 3272.9 1976.09 3272.9 1970.54 3272.9 1967.91 3270.91 1965.49 3266.94 1963.29 3260.48 1959.75 3256.77 1957.57 3255.81 1956.76 3251.84 1953.36 3249.86 1948.91 3249.86 1943.41 3249.86 1936.23 3252.56 1930.63 3257.97 1926.61 3262.85 1923.02 3269.02 1921.23 3276.48 1921.23ZM3231.48 1921.23C3232.15 1921.23 3232.65 1921.54 3232.96 1922.16 3233.27 1922.78 3233.87 1924.72 3234.75 1927.97 3235.64 1931.23 3236.08 1933.19 3236.08 1933.86 3236.08 1934.39 3235.62 1934.72 3234.71 1934.87 3231.65 1935.3 3228.57 1935.7 3225.46 1936.09 3221.77 1937.09 3219.93 1939.1 3219.93 1942.11 3219.93 1944.27 3221.87 1946.45 3225.74 1948.65 3231.48 1951.85 3235.12 1954.17 3236.65 1955.61 3240.58 1959.34 3242.54 1964.13 3242.54 1969.96 3242.54 1977.09 3239.69 1982.81 3234 1987.12 3228.83 1991.04 3222.54 1993 3215.12 1993 3212.25 1993 3210.62 1992.93 3210.24 1992.79 3209.43 1992.41 3209.02 1991.23 3209.02 1989.27 3209.02 1988.22 3208.89 1986.64 3208.62 1984.54 3208.36 1982.43 3208.23 1980.87 3208.23 1979.87 3208.23 1979.25 3208.66 1978.84 3209.52 1978.65 3210.14 1978.51 3211.03 1978.51 3212.18 1978.65 3213.66 1978.79 3214.38 1978.86 3214.33 1978.86 3223.37 1978.86 3227.9 1976.09 3227.9 1970.54 3227.9 1967.91 3225.91 1965.49 3221.94 1963.29 3215.48 1959.75 3211.77 1957.57 3210.81 1956.76 3206.84 1953.36 3204.86 1948.91 3204.86 1943.41 3204.86 1936.23 3207.56 1930.63 3212.97 1926.61 3217.85 1923.02 3224.02 1921.23 3231.48 1921.23ZM3512.24 1920.94C3522.09 1920.94 3530.37 1924.53 3537.07 1931.71 3543.68 1938.69 3546.98 1947.16 3546.98 1957.12 3546.98 1967.12 3543.7 1975.66 3537.14 1982.74 3530.44 1990.06 3522.14 1993.72 3512.24 1993.72 3502.28 1993.72 3493.96 1990.09 3487.26 1982.81 3480.7 1975.78 3477.42 1967.26 3477.42 1957.26 3477.42 1947.26 3480.7 1938.74 3487.26 1931.71 3494 1924.53 3502.33 1920.94 3512.24 1920.94ZM2823.24 1920.94C2833.09 1920.94 2841.37 1924.53 2848.07 1931.71 2854.68 1938.69 2857.98 1947.16 2857.98 1957.12 2857.98 1967.12 2854.7 1975.66 2848.14 1982.74 2841.44 1990.06 2833.14 1993.72 2823.24 1993.72 2813.28 1993.72 2804.96 1990.09 2798.26 1982.81 2791.7 1975.78 2788.42 1967.26 2788.42 1957.26 2788.42 1947.26 2791.7 1938.74 2798.26 1931.71 2805.01 1924.53 2813.33 1920.94 2823.24 1920.94ZM2407.75 1920.37C2408.22 1920.37 2410.81 1920.81 2415.5 1921.69 2420.19 1922.58 2422.75 1923.12 2423.18 1923.31 2423.85 1923.55 2424.18 1924.17 2424.18 1925.18 2424.18 1930.92 2424.13 1939.54 2424.04 1951.05 2423.94 1962.56 2423.9 1971.18 2423.9 1976.93 2423.9 1988.32 2421.45 1996.71 2416.57 2002.12 2411.45 2007.86 2403.27 2010.73 2392.03 2010.73 2381.16 2010.73 2372.38 2008.68 2365.68 2004.56 2364.63 2003.89 2364.1 2003.32 2364.1 2002.84 2364.1 2003.36 2364.82 1999.82 2366.26 1992.22 2366.4 1991.4 2366.74 1991 2367.26 1991 2367.5 1991 2367.81 1991.11 2368.2 1991.35 2375.37 1995.47 2382.58 1997.53 2389.8 1997.53 2394.54 1997.53 2398.46 1996.47 2401.57 1994.37 2405.16 1991.98 2406.96 1988.51 2406.96 1983.96 2406.96 1982.96 2406.86 1980.71 2406.67 1977.21 2401.36 1983.67 2394.61 1986.9 2386.43 1986.9 2377.57 1986.9 2370.3 1983.72 2364.61 1977.36 2359.15 1971.23 2356.42 1963.7 2356.42 1954.75 2356.42 1945.66 2359.06 1937.93 2364.32 1931.56 2369.92 1924.77 2377.19 1921.37 2386.14 1921.37 2394.04 1921.37 2400.3 1924.41 2404.95 1930.49 2405.71 1931.49 2406.26 1931.99 2406.6 1931.99 2406.98 1931.99 2407.17 1931.56 2407.17 1930.7 2407.17 1930.08 2407.12 1929.09 2407.03 1927.72 2406.93 1926.36 2406.88 1925.34 2406.88 1924.67 2406.88 1921.8 2407.17 1920.37 2407.75 1920.37ZM3168.38 1920.22C3177.37 1920.22 3184.88 1923.52 3190.91 1930.13 3196.8 1936.54 3199.74 1944.34 3199.74 1953.53 3199.74 1957.07 3198.21 1959.44 3195.15 1960.63 3193.09 1961.4 3178.28 1962.81 3150.72 1964.87 3151.34 1969.08 3153.66 1972.67 3157.68 1975.63 3161.51 1978.46 3165.62 1979.87 3170.03 1979.87 3177.59 1979.87 3184.53 1977.43 3190.84 1972.55 3191.61 1971.93 3192.37 1971.3 3193.14 1970.68 3193.52 1970.68 3193.77 1970.73 3193.89 1970.83 3194.01 1970.92 3194.91 1972.58 3196.58 1975.81 3198.26 1979.04 3199.1 1980.78 3199.1 1981.02 3199.1 1981.31 3198.71 1981.86 3197.95 1982.67 3190.91 1990.13 3181.89 1993.87 3170.89 1993.87 3159.79 1993.87 3150.93 1990.55 3144.33 1983.93 3137.73 1977.3 3134.42 1968.46 3134.42 1957.4 3134.42 1947.55 3137.58 1938.96 3143.9 1931.64 3150.55 1924.03 3158.71 1920.22 3168.38 1920.22ZM2625.38 1920.22C2634.37 1920.22 2641.88 1923.52 2647.91 1930.13 2653.8 1936.54 2656.74 1944.34 2656.74 1953.53 2656.74 1957.07 2655.21 1959.44 2652.15 1960.63 2650.09 1961.4 2635.28 1962.81 2607.72 1964.87 2608.34 1969.08 2610.66 1972.67 2614.68 1975.63 2618.51 1978.46 2622.62 1979.87 2627.03 1979.87 2634.59 1979.87 2641.53 1977.43 2647.84 1972.55 2648.61 1971.93 2649.37 1971.3 2650.14 1970.68 2650.52 1970.68 2650.77 1970.73 2650.89 1970.83 2651.01 1970.92 2651.91 1972.58 2653.58 1975.81 2655.26 1979.04 2656.1 1980.78 2656.1 1981.02 2656.1 1981.31 2655.71 1981.86 2654.95 1982.67 2647.91 1990.13 2638.89 1993.87 2627.89 1993.87 2616.79 1993.87 2607.93 1990.55 2601.33 1983.93 2594.73 1977.3 2591.42 1968.46 2591.42 1957.4 2591.42 1947.55 2594.58 1938.96 2600.9 1931.64 2607.55 1924.03 2615.71 1920.22 2625.38 1920.22ZM2734.52 1904.14C2726.48 1904.14 2722.47 1904.74 2722.47 1905.94 2722.47 1907.52 2722.39 1909.89 2722.25 1913.04 2722.11 1916.2 2722.03 1918.6 2722.03 1920.22 2722.03 1921.32 2722.06 1923.02 2722.11 1925.32 2722.15 1927.62 2722.18 1929.34 2722.18 1930.49 2722.18 1931.87 2727.59 1932.57 2738.4 1932.57 2753.76 1932.57 2761.44 1928.33 2761.44 1919.86 2761.44 1913.12 2758.43 1908.57 2752.4 1906.23 2748.76 1904.84 2742.8 1904.14 2734.52 1904.14ZM3668.25 1899.62C3668.68 1899.62 3673.18 1900.36 3681.75 1901.85 3682.85 1901.99 3683.4 1902.52 3683.4 1903.43 3683.4 1905.53 3683.24 1908.69 3682.93 1912.9 3682.62 1917.11 3682.47 1920.27 3682.47 1922.38 3682.47 1923.76 3683.11 1924.46 3684.4 1924.46L3701.63 1924.46C3702.44 1924.46 3702.85 1924.74 3702.85 1925.32 3702.85 1925.89 3702.77 1926.81 3702.6 1928.08 3702.43 1929.35 3702.35 1930.3 3702.35 1930.92 3702.35 1931.64 3702.37 1932.74 3702.42 1934.22 3702.47 1935.7 3702.49 1936.8 3702.49 1937.52 3702.49 1938.43 3701.82 1938.88 3700.48 1938.88 3698.57 1938.88 3695.67 1938.75 3691.8 1938.49 3687.92 1938.23 3685.03 1938.1 3683.11 1938.1 3682.73 1938.1 3682.44 1939.46 3682.25 1942.19 3682.01 1945.58 3681.89 1950.35 3681.89 1956.47L3681.89 1967.17C3681.89 1971.28 3682.27 1974.15 3683.04 1975.78 3684.19 1978.27 3686.56 1979.51 3690.15 1979.51 3691.63 1979.51 3693.81 1979.19 3696.68 1978.54 3699.55 1977.9 3701.68 1977.57 3703.07 1977.57 3703.64 1977.57 3703.93 1978 3703.93 1978.86 3703.93 1979.92 3703.83 1981.35 3703.64 1983.17 3703.4 1985.42 3703.26 1986.88 3703.21 1987.55 3703.16 1988.41 3703.09 1988.94 3702.99 1989.13 3702.8 1989.46 3702.35 1989.8 3701.63 1990.13 3697.71 1992 3691.53 1992.93 3683.11 1992.93 3671.91 1992.93 3666.32 1987.86 3666.32 1977.72 3666.32 1973.65 3666.41 1967.54 3666.6 1959.38 3666.79 1951.22 3666.89 1945.11 3666.89 1941.04 3666.89 1939.08 3665.91 1938.02 3663.95 1937.88 3662.18 1937.88 3660.43 1937.86 3658.71 1937.81 3657.7 1937.57 3657.2 1935.61 3657.2 1931.92 3657.2 1930.53 3657.3 1929.08 3657.49 1927.54 3657.63 1926.4 3658.4 1925.7 3659.78 1925.46 3660.98 1925.46 3662.15 1925.44 3663.3 1925.39 3665.5 1925.29 3666.6 1924.31 3666.6 1922.45 3666.6 1920.53 3666.54 1917.61 3666.42 1913.69 3666.3 1909.77 3666.24 1906.82 3666.24 1904.86 3666.24 1901.37 3666.91 1899.62 3668.25 1899.62ZM2550.25 1899.62C2550.68 1899.62 2555.18 1900.36 2563.75 1901.85 2564.85 1901.99 2565.4 1902.52 2565.4 1903.43 2565.4 1905.53 2565.24 1908.69 2564.93 1912.9 2564.62 1917.11 2564.47 1920.27 2564.47 1922.38 2564.47 1923.76 2565.11 1924.46 2566.4 1924.46L2583.63 1924.46C2584.44 1924.46 2584.85 1924.74 2584.85 1925.32 2584.85 1925.89 2584.77 1926.81 2584.6 1928.08 2584.43 1929.35 2584.35 1930.3 2584.35 1930.92 2584.35 1931.64 2584.37 1932.74 2584.42 1934.22 2584.47 1935.7 2584.49 1936.8 2584.49 1937.52 2584.49 1938.43 2583.82 1938.88 2582.48 1938.88 2580.57 1938.88 2577.67 1938.75 2573.8 1938.49 2569.92 1938.23 2567.03 1938.1 2565.11 1938.1 2564.73 1938.1 2564.44 1939.46 2564.25 1942.19 2564.01 1945.58 2563.89 1950.35 2563.89 1956.47L2563.89 1967.17C2563.89 1971.28 2564.27 1974.15 2565.04 1975.78 2566.19 1978.27 2568.56 1979.51 2572.15 1979.51 2573.63 1979.51 2575.81 1979.19 2578.68 1978.54 2581.55 1977.9 2583.68 1977.57 2585.07 1977.57 2585.64 1977.57 2585.93 1978 2585.93 1978.86 2585.93 1979.92 2585.83 1981.35 2585.64 1983.17 2585.4 1985.42 2585.26 1986.88 2585.21 1987.55 2585.16 1988.41 2585.09 1988.94 2584.99 1989.13 2584.8 1989.46 2584.35 1989.8 2583.63 1990.13 2579.71 1992 2573.53 1992.93 2565.11 1992.93 2553.91 1992.93 2548.32 1987.86 2548.32 1977.72 2548.32 1973.65 2548.41 1967.54 2548.6 1959.38 2548.79 1951.22 2548.89 1945.11 2548.89 1941.04 2548.89 1939.08 2547.91 1938.02 2545.95 1937.88 2544.18 1937.88 2542.43 1937.86 2540.71 1937.81 2539.7 1937.57 2539.2 1935.61 2539.2 1931.92 2539.2 1930.53 2539.3 1929.08 2539.49 1927.54 2539.63 1926.4 2540.4 1925.7 2541.78 1925.46 2542.98 1925.46 2544.15 1925.44 2545.3 1925.39 2547.5 1925.29 2548.6 1924.31 2548.6 1922.45 2548.6 1920.53 2548.54 1917.61 2548.42 1913.69 2548.3 1909.77 2548.24 1906.82 2548.24 1904.86 2548.24 1901.37 2548.91 1899.62 2550.25 1899.62ZM2522.78 1897.25C2525.45 1897.25 2527.76 1898.09 2529.7 1899.77 2531.64 1901.44 2532.61 1903.59 2532.61 1906.23 2532.61 1912.11 2529.33 1915.05 2522.78 1915.05 2516.12 1915.05 2512.8 1912.11 2512.8 1906.23 2512.8 1903.59 2513.83 1901.42 2515.88 1899.69 2517.8 1898.07 2520.1 1897.25 2522.78 1897.25ZM3108.17 1891.37C3109.03 1891.37 3110.32 1891.44 3112.04 1891.58 3113.77 1891.73 3115.06 1891.8 3115.92 1891.8 3116.83 1891.8 3118.17 1891.73 3119.94 1891.58 3121.71 1891.44 3123.02 1891.37 3123.89 1891.37 3124.75 1891.37 3125.15 1891.75 3125.11 1892.52L3125.03 1893.45C3123.98 1911.25 3123.46 1926.54 3123.46 1939.32 3123.46 1945.01 3123.55 1953.54 3123.74 1964.9 3123.93 1976.27 3124.03 1984.77 3124.03 1990.42 3124.03 1991.52 3123.65 1992.07 3122.88 1992.07L3109.17 1992.07C3108.31 1992.07 3107.88 1991.52 3107.88 1990.42 3107.88 1984.77 3107.93 1976.27 3108.02 1964.9 3108.12 1953.54 3108.17 1945.01 3108.17 1939.32 3108.17 1934.15 3107.92 1926.38 3107.41 1916.02 3106.91 1905.66 3106.66 1897.92 3106.66 1892.8 3106.66 1891.85 3107.16 1891.37 3108.17 1891.37ZM2705.88 1891.37C2710.14 1891.37 2716.56 1891.39 2725.12 1891.44 2733.69 1891.49 2740.12 1891.51 2744.43 1891.51 2754.48 1891.51 2762.49 1893.38 2768.47 1897.11 2775.75 1901.66 2779.38 1908.71 2779.38 1918.28 2779.38 1921.59 2778.43 1925.02 2776.51 1928.58 2774.6 1932.15 2772.28 1934.84 2769.55 1936.66 2768.16 1937.57 2767.47 1938.17 2767.47 1938.45 2767.47 1938.74 2768.16 1939.27 2769.55 1940.03 2773.19 1942.04 2776.11 1945 2778.31 1948.9 2780.51 1952.8 2781.61 1956.85 2781.61 1961.06 2781.61 1969.39 2779.1 1976.54 2774.07 1982.53 2768.76 1988.79 2762.01 1991.93 2753.83 1991.93 2750.77 1991.93 2746.16 1991.86 2740.01 1991.71 2733.87 1991.57 2729.26 1991.5 2726.2 1991.5 2723.95 1991.5 2720.56 1991.59 2716.04 1991.78 2711.52 1991.98 2708.13 1992.07 2705.88 1992.07 2704.69 1992.07 2704.09 1991.52 2704.09 1990.42 2704.09 1985.16 2704.34 1977.25 2704.84 1966.7 2705.35 1956.15 2705.6 1948.24 2705.6 1942.98 2705.6 1937.43 2705.35 1929.09 2704.84 1917.96 2704.34 1906.84 2704.09 1898.5 2704.09 1892.95 2704.09 1891.89 2704.69 1891.37 2705.88 1891.37ZM2327.74 1891.37C2328.65 1891.37 2330.04 1891.44 2331.9 1891.58 2333.77 1891.73 2335.18 1891.8 2336.14 1891.8 2337 1891.8 2338.29 1891.73 2340.01 1891.58 2341.74 1891.44 2343.03 1891.37 2343.89 1891.37 2345.14 1891.37 2345.76 1891.85 2345.76 1892.8 2345.76 1898.16 2345.57 1906.2 2345.18 1916.92 2344.8 1927.64 2344.61 1935.68 2344.61 1941.04 2344.61 1946.54 2344.81 1954.8 2345.22 1965.8 2345.63 1976.81 2345.83 1985.06 2345.83 1990.56 2345.83 1991.57 2345.14 1992.07 2343.75 1992.07 2342.89 1992.07 2341.57 1992 2339.8 1991.86 2338.03 1991.71 2336.71 1991.64 2335.85 1991.64 2334.94 1991.64 2333.6 1991.71 2331.83 1991.86 2330.06 1992 2328.75 1992.07 2327.88 1992.07 2326.69 1992.07 2326.09 1991.52 2326.09 1990.42 2326.09 1984.97 2326.34 1976.75 2326.84 1965.77 2327.35 1954.78 2327.6 1946.54 2327.6 1941.04 2327.6 1935.73 2327.35 1927.75 2326.84 1917.1 2326.34 1906.45 2326.09 1898.47 2326.09 1893.16 2326.09 1891.97 2326.64 1891.37 2327.74 1891.37ZM3093.7 1890.44C3094.52 1890.44 3094.92 1890.94 3094.92 1891.94 3094.92 1898.12 3094.65 1907.36 3094.1 1919.68 3093.55 1932.01 3093.27 1941.23 3093.27 1947.35 3093.27 1966.26 3093.68 1980.56 3094.49 1990.28L3094.57 1991.21C3094.61 1991.69 3093.97 1992 3092.63 1992.14 3091.72 1992.24 3090.43 1992.24 3088.75 1992.14 3086.74 1992 3085.81 1991.93 3085.95 1991.93 3085.23 1991.93 3084.18 1992 3082.79 1992.14 3081.41 1992.29 3080.35 1992.36 3079.64 1992.36 3078.97 1992.36 3078.57 1990.7 3078.45 1987.37 3078.33 1984.04 3078.15 1982.36 3077.91 1982.31 3077.63 1982.45 3077.27 1982.76 3076.84 1983.24 3070.28 1990.33 3062.74 1993.87 3054.23 1993.87 3044.56 1993.87 3036.62 1990.18 3030.4 1982.81 3024.51 1975.87 3021.57 1967.5 3021.57 1957.69 3021.57 1947.5 3024.53 1938.93 3030.47 1931.99 3036.69 1924.72 3044.8 1921.08 3054.8 1921.08 3060.83 1921.08 3066.09 1922.85 3070.59 1926.4 3072.65 1928.17 3074.68 1929.96 3076.69 1931.78 3077.08 1931.64 3077.27 1931.3 3077.27 1930.77L3077.27 1907.52C3077.27 1905.94 3077.2 1903.55 3077.05 1900.34 3076.91 1897.13 3076.84 1894.72 3076.84 1893.09 3076.84 1891.94 3077.22 1891.37 3077.99 1891.37 3079.76 1891.37 3082.39 1891.21 3085.88 1890.9 3089.37 1890.59 3091.98 1890.44 3093.7 1890.44ZM3730.52 1890C3731.14 1890 3731.46 1890.46 3731.46 1891.37 3731.46 1895.87 3731.28 1902.63 3730.92 1911.65 3730.56 1920.67 3730.38 1927.42 3730.38 1931.92 3730.38 1933.02 3730.57 1933.6 3730.95 1933.65 3733.39 1931.59 3736.55 1929.1 3740.43 1926.18 3745.12 1923.26 3750.07 1921.8 3755.29 1921.8 3764.28 1921.8 3770.48 1924.48 3773.88 1929.84 3776.32 1933.76 3777.54 1939.99 3777.54 1948.5 3777.54 1949.99 3777.5 1952.27 3777.43 1955.36 3777.36 1958.44 3777.32 1960.73 3777.32 1962.21 3777.32 1965.27 3777.37 1969.84 3777.46 1975.92 3777.56 1982 3777.61 1986.54 3777.61 1989.56 3777.61 1991.33 3777.11 1992.22 3776.1 1992.22 3774.62 1992.22 3772.37 1992.19 3769.35 1992.14 3766.34 1992.1 3764.09 1992.07 3762.61 1992.07 3761.41 1992.07 3760.81 1991.28 3760.81 1989.7 3760.81 1987.41 3760.9 1983.94 3761.06 1979.3 3761.23 1974.65 3761.31 1971.16 3761.31 1968.82 3761.31 1966.61 3761.23 1963.28 3761.06 1958.8 3760.9 1954.33 3760.81 1950.97 3760.81 1948.72 3760.81 1940.1 3756.74 1935.8 3748.61 1935.8 3745.98 1935.8 3742.53 1937.11 3738.27 1939.75 3733.73 1942.57 3731.46 1945.15 3731.46 1947.5L3731.46 1990.13C3731.46 1991.52 3730.95 1992.22 3729.95 1992.22 3728.46 1992.22 3726.24 1992.19 3723.27 1992.14 3720.31 1992.1 3718.08 1992.07 3716.6 1992.07 3715.5 1992.07 3714.95 1991.43 3714.95 1990.13L3714.95 1955.47C3714.95 1949.82 3714.64 1937.81 3714.01 1919.43 3713.92 1913.74 3713.51 1905.32 3712.79 1894.17 3712.7 1893.59 3712.65 1893.21 3712.65 1893.02 3712.65 1892.21 3712.94 1891.7 3713.51 1891.51 3714.32 1891.22 3717.03 1891.08 3721.62 1891.08 3722.63 1891.08 3724.13 1890.9 3726.14 1890.54 3728.15 1890.18 3729.61 1890 3730.52 1890ZM3378.38 1889.29C3385.75 1889.29 3392.84 1891.02 3399.66 1894.49 3406.48 1897.96 3411.92 1902.71 3415.99 1908.74 3416.61 1909.65 3416.92 1910.34 3416.92 1910.82 3416.92 1911.49 3415.21 1913.7 3411.79 1917.46 3408.37 1921.22 3406.39 1923.09 3405.87 1923.09 3405.48 1923.09 3404.03 1921.63 3401.49 1918.72 3398.43 1915.17 3395.51 1912.47 3392.73 1910.6 3388.38 1907.69 3383.83 1906.23 3379.09 1906.23 3370.05 1906.23 3362.63 1910.01 3356.84 1917.57 3351.58 1924.46 3348.95 1932.59 3348.95 1941.97 3348.95 1951.11 3351.65 1959.2 3357.06 1966.23 3362.94 1973.84 3370.34 1977.64 3379.24 1977.64 3387.99 1977.64 3396.03 1975.25 3403.36 1970.47 3403.26 1969.17 3402.85 1964.63 3402.14 1956.83 3401.56 1951.28 3401.27 1946.76 3401.27 1943.26 3401.27 1942.45 3401.8 1942.04 3402.85 1942.04 3403.76 1942.04 3405.13 1942.1 3406.94 1942.22 3408.76 1942.34 3410.13 1942.4 3411.04 1942.4 3411.94 1942.4 3413.33 1942.35 3415.2 1942.26 3417.06 1942.16 3418.45 1942.11 3419.36 1942.11 3420.37 1942.11 3420.87 1942.88 3420.87 1944.41 3420.87 1946.09 3420.81 1948.61 3420.69 1951.98 3420.57 1955.36 3420.51 1957.88 3420.51 1959.56 3420.51 1966.45 3420.96 1975.78 3421.87 1987.55L3421.95 1988.55C3422.04 1989.61 3421.44 1990.13 3420.15 1990.13 3419.43 1990.13 3417.7 1989.45 3414.95 1988.09 3412.2 1986.72 3410.44 1985.76 3409.67 1985.18 3400.87 1991.16 3390.44 1994.15 3378.38 1994.15 3364.31 1994.15 3352.73 1988.89 3343.64 1978.36 3335.02 1968.41 3330.72 1956.28 3330.72 1941.97 3330.72 1927.33 3334.95 1915.03 3343.42 1905.08 3352.37 1894.55 3364.02 1889.29 3378.38 1889.29Z" fill="url(#fill5)" fill-rule="evenodd"/><text fill="#000000" fill-opacity="0" font-family="Arial,Arial_MSFontService,sans-serif" font-size="121.447" x="2326.09" y="1995.55">Ignite Boundless Growth </text><text fill="#7F7F7F" font-family="Berlin Sans FB,Berlin Sans FB_MSFontService,sans-serif" font-weight="400" font-size="147" transform="matrix(1 0 0 1 3820.24 1992)">!</text></g></svg>