<svg width="2238" height="2284" xmlns="http://www.w3.org/2000/svg" xmlns:xlink="http://www.w3.org/1999/xlink" xml:space="preserve" overflow="hidden"><defs><clipPath id="clip0"><rect x="998" y="107" width="2238" height="2284"/></clipPath><linearGradient x1="840.034" y1="0" x2="840.034" y2="1731.18" gradientUnits="userSpaceOnUse" spreadMethod="reflect" id="fill1"><stop offset="0" stop-color="#05BDDA"/><stop offset="0.0163934" stop-color="#05BCD9"/><stop offset="0.0327869" stop-color="#06BCD9"/><stop offset="0.0491803" stop-color="#07BCD9"/><stop offset="0.0655738" stop-color="#07BCD9"/><stop offset="0.0819672" stop-color="#08BCD9"/><stop offset="0.0983607" stop-color="#09BCD9"/><stop offset="0.114754" stop-color="#09BBD8"/><stop offset="0.131148" stop-color="#0ABBD8"/><stop offset="0.147541" stop-color="#0BBBD8"/><stop offset="0.163934" stop-color="#0BBBD7"/><stop offset="0.180328" stop-color="#0CBAD7"/><stop offset="0.196721" stop-color="#0DBAD7"/><stop offset="0.213115" stop-color="#0DB9D6"/><stop offset="0.229508" stop-color="#0EB9D6"/><stop offset="0.245902" stop-color="#0EB8D5"/><stop offset="0.262295" stop-color="#0FB8D4"/><stop offset="0.278689" stop-color="#0FB7D4"/><stop offset="0.295082" stop-color="#10B7D3"/><stop offset="0.311475" stop-color="#11B6D3"/><stop offset="0.327869" stop-color="#11B5D2"/><stop offset="0.344262" stop-color="#12B5D1"/><stop offset="0.360656" stop-color="#12B4D0"/><stop offset="0.377049" stop-color="#13B3D0"/><stop offset="0.393443" stop-color="#13B2CF"/><stop offset="0.409836" stop-color="#14B1CE"/><stop offset="0.42623" stop-color="#14B1CD"/><stop offset="0.442623" stop-color="#14B0CC"/><stop offset="0.459016" stop-color="#15AFCB"/><stop offset="0.47541" stop-color="#15AECA"/><stop offset="0.491803" stop-color="#16ADC9"/><stop offset="0.508197" stop-color="#16ACC8"/><stop offset="0.52459" stop-color="#17ABC7"/><stop offset="0.540984" stop-color="#17AAC6"/><stop offset="0.557377" stop-color="#17A9C5"/><stop offset="0.57377" stop-color="#18A8C4"/><stop offset="0.590164" stop-color="#18A7C2"/><stop offset="0.606557" stop-color="#18A5C1"/><stop offset="0.622951" stop-color="#19A4C0"/><stop offset="0.639344" stop-color="#19A3BF"/><stop offset="0.655738" stop-color="#19A2BD"/><stop offset="0.672131" stop-color="#1AA0BC"/><stop offset="0.688525" stop-color="#1A9FBB"/><stop offset="0.704918" stop-color="#1A9EB9"/><stop offset="0.721311" stop-color="#1A9DB8"/><stop offset="0.737705" stop-color="#1B9BB6"/><stop offset="0.754098" stop-color="#1B9AB5"/><stop offset="0.770492" stop-color="#1B98B3"/><stop offset="0.786885" stop-color="#1B97B2"/><stop offset="0.803279" stop-color="#1B95B0"/><stop offset="0.819672" stop-color="#1C94AF"/><stop offset="0.836066" stop-color="#1C92AD"/><stop offset="0.852459" stop-color="#1C91AC"/><stop offset="0.868852" stop-color="#1C8FAA"/><stop offset="0.885246" stop-color="#1C8EA8"/><stop offset="0.901639" stop-color="#1C8CA6"/><stop offset="0.918033" stop-color="#1C8AA5"/><stop offset="0.934426" stop-color="#1C89A3"/><stop offset="0.95082" stop-color="#1C87A1"/><stop offset="0.967213" stop-color="#1C859F"/><stop offset="0.983607" stop-color="#1C839D"/><stop offset="1" stop-color="#1D829C"/></linearGradient><linearGradient x1="455.554" y1="-1029.92" x2="598.784" y2="695.327" gradientUnits="userSpaceOnUse" spreadMethod="reflect" id="fill2"><stop offset="0" stop-color="#05BDDA"/><stop offset="0.0163934" stop-color="#05BCD9"/><stop offset="0.0327869" stop-color="#06BCD9"/><stop offset="0.0491803" stop-color="#07BCD9"/><stop offset="0.0655738" stop-color="#07BCD9"/><stop offset="0.0819672" stop-color="#08BCD9"/><stop offset="0.0983607" stop-color="#09BCD9"/><stop offset="0.114754" stop-color="#09BBD8"/><stop offset="0.131148" stop-color="#0ABBD8"/><stop offset="0.147541" stop-color="#0BBBD8"/><stop offset="0.163934" stop-color="#0BBBD7"/><stop offset="0.180328" stop-color="#0CBAD7"/><stop offset="0.196721" stop-color="#0DBAD7"/><stop offset="0.213115" stop-color="#0DB9D6"/><stop offset="0.229508" stop-color="#0EB9D6"/><stop offset="0.245902" stop-color="#0EB8D5"/><stop offset="0.262295" stop-color="#0FB8D4"/><stop offset="0.278689" stop-color="#0FB7D4"/><stop offset="0.295082" stop-color="#10B7D3"/><stop offset="0.311475" stop-color="#11B6D3"/><stop offset="0.327869" stop-color="#11B5D2"/><stop offset="0.344262" stop-color="#12B5D1"/><stop offset="0.360656" stop-color="#12B4D0"/><stop offset="0.377049" stop-color="#13B3D0"/><stop offset="0.393443" stop-color="#13B2CF"/><stop offset="0.409836" stop-color="#14B1CE"/><stop offset="0.42623" stop-color="#14B1CD"/><stop offset="0.442623" stop-color="#14B0CC"/><stop offset="0.459016" stop-color="#15AFCB"/><stop offset="0.47541" stop-color="#15AECA"/><stop offset="0.491803" stop-color="#16ADC9"/><stop offset="0.508197" stop-color="#16ACC8"/><stop offset="0.52459" stop-color="#17ABC7"/><stop offset="0.540984" stop-color="#17AAC6"/><stop offset="0.557377" stop-color="#17A9C5"/><stop offset="0.57377" stop-color="#18A8C4"/><stop offset="0.590164" stop-color="#18A7C2"/><stop offset="0.606557" stop-color="#18A5C1"/><stop offset="0.622951" stop-color="#19A4C0"/><stop offset="0.639344" stop-color="#19A3BF"/><stop offset="0.655738" stop-color="#19A2BD"/><stop offset="0.672131" stop-color="#1AA0BC"/><stop offset="0.688525" stop-color="#1A9FBB"/><stop offset="0.704918" stop-color="#1A9EB9"/><stop offset="0.721311" stop-color="#1A9DB8"/><stop offset="0.737705" stop-color="#1B9BB6"/><stop offset="0.754098" stop-color="#1B9AB5"/><stop offset="0.770492" stop-color="#1B98B3"/><stop offset="0.786885" stop-color="#1B97B2"/><stop offset="0.803279" stop-color="#1B95B0"/><stop offset="0.819672" stop-color="#1C94AF"/><stop offset="0.836066" stop-color="#1C92AD"/><stop offset="0.852459" stop-color="#1C91AC"/><stop offset="0.868852" stop-color="#1C8FAA"/><stop offset="0.885246" stop-color="#1C8EA8"/><stop offset="0.901639" stop-color="#1C8CA6"/><stop offset="0.918033" stop-color="#1C8AA5"/><stop offset="0.934426" stop-color="#1C89A3"/><stop offset="0.95082" stop-color="#1C87A1"/><stop offset="0.967213" stop-color="#1C859F"/><stop offset="0.983607" stop-color="#1C839D"/><stop offset="1" stop-color="#1D829C"/></linearGradient><linearGradient x1="1958" y1="395" x2="1958" y2="2390.93" gradientUnits="userSpaceOnUse" spreadMethod="reflect" id="fill3"><stop offset="0" stop-color="#05F93F"/><stop offset="0.00990099" stop-color="#05F83E"/><stop offset="0.019802" stop-color="#05F83E"/><stop offset="0.029703" stop-color="#05F83E"/><stop offset="0.039604" stop-color="#05F83E"/><stop offset="0.049505" stop-color="#05F83E"/><stop offset="0.0594059" stop-color="#05F83E"/><stop offset="0.0693069" stop-color="#05F83E"/><stop offset="0.0792079" stop-color="#05F83E"/><stop offset="0.0891089" stop-color="#05F73E"/><stop offset="0.0990099" stop-color="#05F73E"/><stop offset="0.108911" stop-color="#05F73E"/><stop offset="0.118812" stop-color="#06F73E"/><stop offset="0.128713" stop-color="#06F63E"/><stop offset="0.138614" stop-color="#06F63E"/><stop offset="0.148515" stop-color="#06F63D"/><stop offset="0.158416" stop-color="#06F53D"/><stop offset="0.168317" stop-color="#06F53D"/><stop offset="0.178218" stop-color="#06F43D"/><stop offset="0.188119" stop-color="#06F43D"/><stop offset="0.19802" stop-color="#06F43D"/><stop offset="0.207921" stop-color="#06F33D"/><stop offset="0.217822" stop-color="#06F33C"/><stop offset="0.227723" stop-color="#06F23C"/><stop offset="0.237624" stop-color="#06F23C"/><stop offset="0.247525" stop-color="#07F13C"/><stop offset="0.257426" stop-color="#07F03C"/><stop offset="0.267327" stop-color="#07F03B"/><stop offset="0.277228" stop-color="#07EF3B"/><stop offset="0.287129" stop-color="#07EF3B"/><stop offset="0.29703" stop-color="#07EE3B"/><stop offset="0.306931" stop-color="#07ED3B"/><stop offset="0.316832" stop-color="#07ED3A"/><stop offset="0.326733" stop-color="#07EC3A"/><stop offset="0.336634" stop-color="#07EB3A"/><stop offset="0.346535" stop-color="#07EB3A"/><stop offset="0.356436" stop-color="#07EA39"/><stop offset="0.366337" stop-color="#07E939"/><stop offset="0.376238" stop-color="#07E839"/><stop offset="0.386139" stop-color="#07E738"/><stop offset="0.39604" stop-color="#08E738"/><stop offset="0.405941" stop-color="#08E638"/><stop offset="0.415842" stop-color="#08E538"/><stop offset="0.425743" stop-color="#08E437"/><stop offset="0.435644" stop-color="#08E337"/><stop offset="0.445545" stop-color="#08E237"/><stop offset="0.455446" stop-color="#08E136"/><stop offset="0.465347" stop-color="#08E036"/><stop offset="0.475248" stop-color="#08DF36"/><stop offset="0.485149" stop-color="#08DE35"/><stop offset="0.49505" stop-color="#08DD35"/><stop offset="0.504951" stop-color="#08DC35"/><stop offset="0.514852" stop-color="#08DB34"/><stop offset="0.524752" stop-color="#08DA34"/><stop offset="0.534653" stop-color="#08D933"/><stop offset="0.544554" stop-color="#08D833"/><stop offset="0.554455" stop-color="#08D733"/><stop offset="0.564356" stop-color="#08D632"/><stop offset="0.574257" stop-color="#08D432"/><stop offset="0.584158" stop-color="#09D331"/><stop offset="0.594059" stop-color="#09D231"/><stop offset="0.60396" stop-color="#09D131"/><stop offset="0.613861" stop-color="#09D030"/><stop offset="0.623762" stop-color="#09CE30"/><stop offset="0.633663" stop-color="#09CD2F"/><stop offset="0.643564" stop-color="#09CC2F"/><stop offset="0.653465" stop-color="#09CB2E"/><stop offset="0.663366" stop-color="#09C92E"/><stop offset="0.673267" stop-color="#09C82D"/><stop offset="0.683168" stop-color="#09C72D"/><stop offset="0.693069" stop-color="#09C52C"/><stop offset="0.70297" stop-color="#09C42C"/><stop offset="0.712871" stop-color="#09C22B"/><stop offset="0.722772" stop-color="#09C12B"/><stop offset="0.732673" stop-color="#09C02A"/><stop offset="0.742574" stop-color="#09BE2A"/><stop offset="0.752475" stop-color="#09BD29"/><stop offset="0.762376" stop-color="#09BB29"/><stop offset="0.772277" stop-color="#09BA28"/><stop offset="0.782178" stop-color="#09B828"/><stop offset="0.792079" stop-color="#09B727"/><stop offset="0.80198" stop-color="#09B527"/><stop offset="0.811881" stop-color="#09B326"/><stop offset="0.821782" stop-color="#09B226"/><stop offset="0.831683" stop-color="#09B025"/><stop offset="0.841584" stop-color="#09AF24"/><stop offset="0.851485" stop-color="#09AD24"/><stop offset="0.861386" stop-color="#09AB23"/><stop offset="0.871287" stop-color="#09AA23"/><stop offset="0.881188" stop-color="#09A822"/><stop offset="0.891089" stop-color="#09A621"/><stop offset="0.90099" stop-color="#09A521"/><stop offset="0.910891" stop-color="#09A320"/><stop offset="0.920792" stop-color="#09A120"/><stop offset="0.930693" stop-color="#099F1F"/><stop offset="0.940594" stop-color="#099E1E"/><stop offset="0.950495" stop-color="#099C1E"/><stop offset="0.960396" stop-color="#099A1D"/><stop offset="0.970297" stop-color="#09981C"/><stop offset="0.980198" stop-color="#09961C"/><stop offset="0.990099" stop-color="#09941B"/><stop offset="1" stop-color="#0A931B"/></linearGradient><linearGradient x1="1958" y1="395" x2="1958" y2="2390.93" gradientUnits="userSpaceOnUse" spreadMethod="reflect" id="fill4"><stop offset="0" stop-color="#05F93F"/><stop offset="0.00990099" stop-color="#05F83E"/><stop offset="0.019802" stop-color="#05F83E"/><stop offset="0.029703" stop-color="#05F83E"/><stop offset="0.039604" stop-color="#05F83E"/><stop offset="0.049505" stop-color="#05F83E"/><stop offset="0.0594059" stop-color="#05F83E"/><stop offset="0.0693069" stop-color="#05F83E"/><stop offset="0.0792079" stop-color="#05F83E"/><stop offset="0.0891089" stop-color="#05F73E"/><stop offset="0.0990099" stop-color="#05F73E"/><stop offset="0.108911" stop-color="#05F73E"/><stop offset="0.118812" stop-color="#06F73E"/><stop offset="0.128713" stop-color="#06F63E"/><stop offset="0.138614" stop-color="#06F63E"/><stop offset="0.148515" stop-color="#06F63D"/><stop offset="0.158416" stop-color="#06F53D"/><stop offset="0.168317" stop-color="#06F53D"/><stop offset="0.178218" stop-color="#06F43D"/><stop offset="0.188119" stop-color="#06F43D"/><stop offset="0.19802" stop-color="#06F43D"/><stop offset="0.207921" stop-color="#06F33D"/><stop offset="0.217822" stop-color="#06F33C"/><stop offset="0.227723" stop-color="#06F23C"/><stop offset="0.237624" stop-color="#06F23C"/><stop offset="0.247525" stop-color="#07F13C"/><stop offset="0.257426" stop-color="#07F03C"/><stop offset="0.267327" stop-color="#07F03B"/><stop offset="0.277228" stop-color="#07EF3B"/><stop offset="0.287129" stop-color="#07EF3B"/><stop offset="0.29703" stop-color="#07EE3B"/><stop offset="0.306931" stop-color="#07ED3B"/><stop offset="0.316832" stop-color="#07ED3A"/><stop offset="0.326733" stop-color="#07EC3A"/><stop offset="0.336634" stop-color="#07EB3A"/><stop offset="0.346535" stop-color="#07EB3A"/><stop offset="0.356436" stop-color="#07EA39"/><stop offset="0.366337" stop-color="#07E939"/><stop offset="0.376238" stop-color="#07E839"/><stop offset="0.386139" stop-color="#07E738"/><stop offset="0.39604" stop-color="#08E738"/><stop offset="0.405941" stop-color="#08E638"/><stop offset="0.415842" stop-color="#08E538"/><stop offset="0.425743" stop-color="#08E437"/><stop offset="0.435644" stop-color="#08E337"/><stop offset="0.445545" stop-color="#08E237"/><stop offset="0.455446" stop-color="#08E136"/><stop offset="0.465347" stop-color="#08E036"/><stop offset="0.475248" stop-color="#08DF36"/><stop offset="0.485149" stop-color="#08DE35"/><stop offset="0.49505" stop-color="#08DD35"/><stop offset="0.504951" stop-color="#08DC35"/><stop offset="0.514852" stop-color="#08DB34"/><stop offset="0.524752" stop-color="#08DA34"/><stop offset="0.534653" stop-color="#08D933"/><stop offset="0.544554" stop-color="#08D833"/><stop offset="0.554455" stop-color="#08D733"/><stop offset="0.564356" stop-color="#08D632"/><stop offset="0.574257" stop-color="#08D432"/><stop offset="0.584158" stop-color="#09D331"/><stop offset="0.594059" stop-color="#09D231"/><stop offset="0.60396" stop-color="#09D131"/><stop offset="0.613861" stop-color="#09D030"/><stop offset="0.623762" stop-color="#09CE30"/><stop offset="0.633663" stop-color="#09CD2F"/><stop offset="0.643564" stop-color="#09CC2F"/><stop offset="0.653465" stop-color="#09CB2E"/><stop offset="0.663366" stop-color="#09C92E"/><stop offset="0.673267" stop-color="#09C82D"/><stop offset="0.683168" stop-color="#09C72D"/><stop offset="0.693069" stop-color="#09C52C"/><stop offset="0.70297" stop-color="#09C42C"/><stop offset="0.712871" stop-color="#09C22B"/><stop offset="0.722772" stop-color="#09C12B"/><stop offset="0.732673" stop-color="#09C02A"/><stop offset="0.742574" stop-color="#09BE2A"/><stop offset="0.752475" stop-color="#09BD29"/><stop offset="0.762376" stop-color="#09BB29"/><stop offset="0.772277" stop-color="#09BA28"/><stop offset="0.782178" stop-color="#09B828"/><stop offset="0.792079" stop-color="#09B727"/><stop offset="0.80198" stop-color="#09B527"/><stop offset="0.811881" stop-color="#09B326"/><stop offset="0.821782" stop-color="#09B226"/><stop offset="0.831683" stop-color="#09B025"/><stop offset="0.841584" stop-color="#09AF24"/><stop offset="0.851485" stop-color="#09AD24"/><stop offset="0.861386" stop-color="#09AB23"/><stop offset="0.871287" stop-color="#09AA23"/><stop offset="0.881188" stop-color="#09A822"/><stop offset="0.891089" stop-color="#09A621"/><stop offset="0.90099" stop-color="#09A521"/><stop offset="0.910891" stop-color="#09A320"/><stop offset="0.920792" stop-color="#09A120"/><stop offset="0.930693" stop-color="#099F1F"/><stop offset="0.940594" stop-color="#099E1E"/><stop offset="0.950495" stop-color="#099C1E"/><stop offset="0.960396" stop-color="#099A1D"/><stop offset="0.970297" stop-color="#09981C"/><stop offset="0.980198" stop-color="#09961C"/><stop offset="0.990099" stop-color="#09941B"/><stop offset="1" stop-color="#0A931B"/></linearGradient></defs><g clip-path="url(#clip0)" transform="translate(-998 -107)"><path d="M0 716.621C-1.06947e-13 320.842 376.096-9.12354e-14 840.033-1.82471e-13 1303.97-3.64942e-13 1680.07 320.842 1680.07 716.621 1680.07 1112.4 1303.97 1433.24 840.033 1433.24 376.096 1433.24-5.34737e-13 1112.4 0 716.621Z" fill="url(#fill1)" fill-rule="evenodd" transform="matrix(-0.981656 -0.190663 -0.190663 0.981656 3361.11 739.713)"/><path d="M102.939 319.311C-199.731 127.196 255.854-46.9568 312.454 23.7915L1201.42 0C1218.97 0 1235.14 10.7153 1235.14 33.4699 1160.88 130.162 1094 199.867 966.307 290.727 925.936 316.906 652.381 536.594 129.632 722.049 50.0933 746.264 12.7763 753.613 33.1048 703.683 72.5343 560.73 243.505 371.893 102.939 319.311Z" fill="url(#fill2)" fill-rule="evenodd" transform="matrix(-0.994065 -0.108791 -0.108791 0.994065 2877.29 1652.91)"/><path d="M998 1221C998 764.813 1427.81 395 1958 395 2488.19 395 2918 764.813 2918 1221 2918 1677.19 2488.19 2047 1958 2047 1427.81 2047 998 1677.19 998 1221Z" fill="url(#fill3)" fill-rule="evenodd"/><path d="M1429.13 1911.61C1102.73 1662.27 1638.22 1505.28 1695.94 1591.91L2710.68 1648.63C2730.67 1650.29 2748.07 1664.13 2745.9 1690.27 2652.09 1794.33 2569.28 1868.09 2415.18 1960.4 2366.7 1986.66 2034.18 2213.19 1421.12 2376.82 1328.22 2397.12 1285.01 2402.03 1312.93 2346.59 1371.47 2186.09 1584.21 1985.31 1429.13 1911.61Z" fill="url(#fill4)" fill-rule="evenodd"/><path d="M1877 1246C1877 1175.86 1930.73 1119 1997 1119 2063.27 1119 2117 1175.86 2117 1246 2117 1316.14 2063.27 1373 1997 1373 1930.73 1373 1877 1316.14 1877 1246Z" fill="#FFFFFF" fill-rule="evenodd"/><path d="M2248 1246C2248 1175.86 2301.73 1119 2368 1119 2434.27 1119 2488 1175.86 2488 1246 2488 1316.14 2434.27 1373 2368 1373 2301.73 1373 2248 1316.14 2248 1246Z" fill="#FFFFFF" fill-rule="evenodd"/><path d="M1495 1246C1495 1175.86 1548.73 1119 1615 1119 1681.27 1119 1735 1175.86 1735 1246 1735 1316.14 1681.27 1373 1615 1373 1548.73 1373 1495 1316.14 1495 1246Z" fill="#FFFFFF" fill-rule="evenodd"/><path d="M2777.95 451.249C2729.63 396.664 2735.12 315.652 2790.2 270.305 2845.28 224.958 2929.09 232.448 2977.41 287.034 3019.01 334.046 3021.45 402.061 2983.23 449.682Z" fill="#FFFF00" fill-rule="evenodd"/><path d="M2985 448 2930.13 583 2829.87 583 2775 448Z" fill="#FFFF00" fill-rule="evenodd"/><path d="M2827 584.793C2827 579.384 2831.38 575 2836.79 575L2924.21 575C2929.62 575 2934 579.384 2934 584.793L2934 594.207C2934 599.616 2929.62 604 2924.21 604L2836.79 604C2831.38 604 2827 599.616 2827 594.207Z" fill-rule="evenodd"/><path d="M2831 616.229C2831 613.341 2833.34 611 2836.23 611L2925.77 611C2928.66 611 2931 613.341 2931 616.229L2931 622.771C2931 625.659 2928.66 628 2925.77 628L2836.23 628C2833.34 628 2831 625.659 2831 622.771Z" fill-rule="evenodd"/><path d="M2831 638.614C2831 636.065 2833.07 634 2835.61 634L2926.39 634C2928.93 634 2931 636.065 2931 638.614L2931 644.386C2931 646.934 2928.93 649 2926.39 649L2835.61 649C2833.07 649 2831 646.934 2831 644.386Z" fill-rule="evenodd"/><path d="M2919 656 2919 663.5C2919 667.642 2901.76 671 2880.5 671 2859.24 671 2842 667.642 2842 663.5L2842 656Z" fill-rule="evenodd"/><path d="M2893 670 2893 677.5C2893 681.642 2887.4 685 2880.5 685 2873.6 685 2868 681.642 2868 677.5L2868 670Z" fill-rule="evenodd"/><path d="M2611.83 353C2609.72 353 2608 351.284 2608 349.167L2608 333.834C2608 331.716 2609.72 330 2611.83 330L2707.17 330C2709.28 330 2711 331.716 2711 333.834L2711 349.167C2711 351.284 2709.28 353 2707.17 353Z" fill="#FFFF00" fill-rule="evenodd"/><path d="M2659.22 529.76C2657.63 531.203 2655.17 531.083 2653.73 529.492L2643.29 517.975C2641.84 516.384 2641.96 513.926 2643.55 512.484L2714.3 448.319C2715.89 446.877 2718.35 446.997 2719.79 448.587L2730.23 460.105C2731.68 461.695 2731.56 464.154 2729.97 465.596Z" fill="#FFFF00" fill-rule="evenodd"/><path d="M2870 110.833C2870 108.716 2871.72 107 2873.83 107L2889.17 107C2891.28 107 2893 108.716 2893 110.833L2893 206.167C2893 208.284 2891.28 210 2889.17 210L2873.83 210C2871.72 210 2870 208.284 2870 206.167Z" fill="#FFFF00" fill-rule="evenodd"/><path d="M2685.55 182.373C2684.21 180.679 2684.49 178.215 2686.18 176.869L2698.45 167.121C2700.14 165.775 2702.61 166.057 2703.95 167.75L2762.85 241.859C2764.19 243.553 2763.91 246.017 2762.22 247.363L2749.95 257.112C2748.25 258.458 2745.79 258.176 2744.44 256.482Z" fill="#FFFF00" fill-rule="evenodd"/><path d="M3054.14 170.28C3055.52 168.612 3057.99 168.375 3059.66 169.752L3071.74 179.726C3073.41 181.103 3073.65 183.572 3072.27 185.241L3012.02 258.248C3010.64 259.917 3008.17 260.153 3006.5 258.776L2994.42 248.802C2992.75 247.425 2992.51 244.956 2993.89 243.288Z" fill="#FFFF00" fill-rule="evenodd"/><path d="M3141.17 336C3143.28 336 3145 337.716 3145 339.833L3145 355.167C3145 357.284 3143.28 359 3141.17 359L3045.83 359C3043.72 359 3042 357.284 3042 355.167L3042 339.833C3042 337.716 3043.72 336 3045.83 336Z" fill="#FFFF00" fill-rule="evenodd"/><path d="M3095.95 516.38C3097.52 517.838 3097.62 520.298 3096.16 521.873L3085.6 533.284C3084.14 534.86 3081.68 534.955 3080.1 533.496L3010.01 468.616C3008.44 467.158 3008.34 464.698 3009.8 463.123L3020.37 451.712C3021.82 450.136 3024.28 450.041 3025.86 451.5Z" fill="#FFFF00" fill-rule="evenodd"/><path d="M2780.59 334.084C2786.98 289.565 2827.21 257.658 2871.95 261.623L2868.59 296.504C2842.58 294.343 2819.17 312.932 2815.31 338.802Z" fill="#FFFFF7" fill-rule="evenodd"/><path d="M2773 364.5C2773 353.731 2781.73 345 2792.5 345 2803.27 345 2812 353.731 2812 364.5 2812 375.27 2803.27 384 2792.5 384 2781.73 384 2773 375.27 2773 364.5Z" fill="#FFFFF7" fill-rule="evenodd"/></g></svg>