<svg width="4197" height="818" xmlns="http://www.w3.org/2000/svg" xmlns:xlink="http://www.w3.org/1999/xlink" xml:space="preserve" overflow="hidden"><defs><linearGradient x1="2574.42" y1="1507.93" x2="2574.42" y2="1232.93" gradientUnits="userSpaceOnUse" spreadMethod="reflect" id="fill0"><stop offset="0" stop-color="#002060"/><stop offset="0.00633" stop-color="#002161"/><stop offset="0.01266" stop-color="#002263"/><stop offset="0.01899" stop-color="#002465"/><stop offset="0.02532" stop-color="#002567"/><stop offset="0.03165" stop-color="#002669"/><stop offset="0.03797" stop-color="#00286B"/><stop offset="0.0443" stop-color="#00296C"/><stop offset="0.05063" stop-color="#002A6E"/><stop offset="0.05696" stop-color="#002C70"/><stop offset="0.06329" stop-color="#002D72"/><stop offset="0.06962" stop-color="#002E74"/><stop offset="0.07595" stop-color="#003075"/><stop offset="0.08228" stop-color="#003177"/><stop offset="0.08861" stop-color="#003279"/><stop offset="0.09494" stop-color="#00337B"/><stop offset="0.10127" stop-color="#00357C"/><stop offset="0.10759" stop-color="#00367E"/><stop offset="0.11392" stop-color="#003780"/><stop offset="0.12025" stop-color="#003881"/><stop offset="0.12658" stop-color="#003A83"/><stop offset="0.13291" stop-color="#003B85"/><stop offset="0.13924" stop-color="#003C86"/><stop offset="0.14557" stop-color="#003D88"/><stop offset="0.1519" stop-color="#003F8A"/><stop offset="0.15823" stop-color="#00408B"/><stop offset="0.16456" stop-color="#00418D"/><stop offset="0.17089" stop-color="#00428F"/><stop offset="0.17721" stop-color="#004390"/><stop offset="0.18354" stop-color="#004592"/><stop offset="0.18987" stop-color="#004693"/><stop offset="0.1962" stop-color="#004795"/><stop offset="0.20253" stop-color="#004896"/><stop offset="0.20886" stop-color="#004998"/><stop offset="0.21519" stop-color="#004A9A"/><stop offset="0.22152" stop-color="#004B9B"/><stop offset="0.22785" stop-color="#004C9D"/><stop offset="0.23418" stop-color="#004E9E"/><stop offset="0.24051" stop-color="#004FA0"/><stop offset="0.24683" stop-color="#0050A1"/><stop offset="0.25317" stop-color="#0051A3"/><stop offset="0.25949" stop-color="#0052A4"/><stop offset="0.26582" stop-color="#0053A5"/><stop offset="0.27215" stop-color="#0054A7"/><stop offset="0.27848" stop-color="#0055A8"/><stop offset="0.28481" stop-color="#0056AA"/><stop offset="0.29114" stop-color="#0057AB"/><stop offset="0.29747" stop-color="#0058AC"/><stop offset="0.3038" stop-color="#0059AE"/><stop offset="0.31013" stop-color="#005AAF"/><stop offset="0.31646" stop-color="#005BB1"/><stop offset="0.32278" stop-color="#005CB2"/><stop offset="0.32911" stop-color="#005DB3"/><stop offset="0.33544" stop-color="#005EB5"/><stop offset="0.34177" stop-color="#005FB6"/><stop offset="0.3481" stop-color="#0060B7"/><stop offset="0.35443" stop-color="#0061B9"/><stop offset="0.36076" stop-color="#0062BA"/><stop offset="0.36709" stop-color="#0063BB"/><stop offset="0.37342" stop-color="#0064BC"/><stop offset="0.37975" stop-color="#0065BE"/><stop offset="0.38608" stop-color="#0066BF"/><stop offset="0.39241" stop-color="#0067C0"/><stop offset="0.39873" stop-color="#0067C1"/><stop offset="0.40506" stop-color="#0068C2"/><stop offset="0.41139" stop-color="#0069C4"/><stop offset="0.41772" stop-color="#006AC5"/><stop offset="0.42405" stop-color="#006BC6"/><stop offset="0.43038" stop-color="#006CC7"/><stop offset="0.43671" stop-color="#006DC8"/><stop offset="0.44304" stop-color="#006DC9"/><stop offset="0.44937" stop-color="#006ECB"/><stop offset="0.4557" stop-color="#006FCC"/><stop offset="0.46202" stop-color="#0070CD"/><stop offset="0.46835" stop-color="#0071CE"/><stop offset="0.47468" stop-color="#0072CF"/><stop offset="0.48101" stop-color="#0072D0"/><stop offset="0.48734" stop-color="#0073D1"/><stop offset="0.49367" stop-color="#0074D2"/><stop offset="0.5" stop-color="#0075D3"/><stop offset="0.50633" stop-color="#0075D4"/><stop offset="0.51266" stop-color="#0076D5"/><stop offset="0.51899" stop-color="#0077D6"/><stop offset="0.52532" stop-color="#0078D7"/><stop offset="0.53165" stop-color="#0078D8"/><stop offset="0.53798" stop-color="#0079D9"/><stop offset="0.5443" stop-color="#007ADA"/><stop offset="0.55063" stop-color="#007ADB"/><stop offset="0.55696" stop-color="#007BDC"/><stop offset="0.56329" stop-color="#007CDD"/><stop offset="0.56962" stop-color="#007CDE"/><stop offset="0.57595" stop-color="#007DDF"/><stop offset="0.58228" stop-color="#007EE0"/><stop offset="0.58861" stop-color="#007EE0"/><stop offset="0.59494" stop-color="#007FE1"/><stop offset="0.60127" stop-color="#0080E2"/><stop offset="0.6076" stop-color="#0080E3"/><stop offset="0.61392" stop-color="#0081E4"/><stop offset="0.62025" stop-color="#0081E5"/><stop offset="0.62658" stop-color="#0082E5"/><stop offset="0.63291" stop-color="#0083E6"/><stop offset="0.63924" stop-color="#0083E7"/><stop offset="0.64557" stop-color="#0084E8"/><stop offset="0.6519" stop-color="#0084E9"/><stop offset="0.65823" stop-color="#0085E9"/><stop offset="0.66456" stop-color="#0085EA"/><stop offset="0.67089" stop-color="#0086EB"/><stop offset="0.67721" stop-color="#0086EB"/><stop offset="0.68354" stop-color="#0087EC"/><stop offset="0.68987" stop-color="#0087ED"/><stop offset="0.6962" stop-color="#0088ED"/><stop offset="0.70253" stop-color="#0088EE"/><stop offset="0.70886" stop-color="#0089EF"/><stop offset="0.71519" stop-color="#0089EF"/><stop offset="0.72152" stop-color="#008AF0"/><stop offset="0.72785" stop-color="#008AF1"/><stop offset="0.73418" stop-color="#008BF1"/><stop offset="0.74051" stop-color="#008BF2"/><stop offset="0.74683" stop-color="#008CF2"/><stop offset="0.75317" stop-color="#008CF3"/><stop offset="0.75949" stop-color="#008CF4"/><stop offset="0.76582" stop-color="#008DF4"/><stop offset="0.77215" stop-color="#008DF5"/><stop offset="0.77848" stop-color="#008EF5"/><stop offset="0.78481" stop-color="#008EF6"/><stop offset="0.79114" stop-color="#008EF6"/><stop offset="0.79747" stop-color="#008FF7"/><stop offset="0.8038" stop-color="#008FF7"/><stop offset="0.81013" stop-color="#008FF7"/><stop offset="0.81646" stop-color="#0090F8"/><stop offset="0.82279" stop-color="#0090F8"/><stop offset="0.82911" stop-color="#0090F9"/><stop offset="0.83544" stop-color="#0091F9"/><stop offset="0.84177" stop-color="#0091F9"/><stop offset="0.8481" stop-color="#0091FA"/><stop offset="0.85443" stop-color="#0091FA"/><stop offset="0.86076" stop-color="#0092FB"/><stop offset="0.86709" stop-color="#0092FB"/><stop offset="0.87342" stop-color="#0092FB"/><stop offset="0.87975" stop-color="#0092FC"/><stop offset="0.88608" stop-color="#0093FC"/><stop offset="0.8924" stop-color="#0093FC"/><stop offset="0.89873" stop-color="#0093FC"/><stop offset="0.90506" stop-color="#0093FD"/><stop offset="0.91139" stop-color="#0093FD"/><stop offset="0.91772" stop-color="#0093FD"/><stop offset="0.92405" stop-color="#0094FD"/><stop offset="0.93038" stop-color="#0094FD"/><stop offset="0.93671" stop-color="#0094FE"/><stop offset="0.94304" stop-color="#0094FE"/><stop offset="0.94937" stop-color="#0094FE"/><stop offset="0.9557" stop-color="#0094FE"/><stop offset="0.96202" stop-color="#0094FE"/><stop offset="0.96835" stop-color="#0094FE"/><stop offset="0.97468" stop-color="#0094FE"/><stop offset="0.98101" stop-color="#0094FE"/><stop offset="0.98734" stop-color="#0094FE"/><stop offset="0.99367" stop-color="#0094FE"/><stop offset="1" stop-color="#0095FF"/></linearGradient><linearGradient x1="2943.92" y1="1342.93" x2="2943.92" y2="1605.93" gradientUnits="userSpaceOnUse" spreadMethod="reflect" id="fill1"><stop offset="0" stop-color="#F6CA2A"/><stop offset="0.01961" stop-color="#F5C929"/><stop offset="0.03922" stop-color="#F5C929"/><stop offset="0.05882" stop-color="#F5C929"/><stop offset="0.07843" stop-color="#F5C929"/><stop offset="0.09804" stop-color="#F5C929"/><stop offset="0.11765" stop-color="#F5C929"/><stop offset="0.13725" stop-color="#F5C828"/><stop offset="0.15686" stop-color="#F5C828"/><stop offset="0.17647" stop-color="#F5C728"/><stop offset="0.19608" stop-color="#F5C728"/><stop offset="0.21569" stop-color="#F5C727"/><stop offset="0.23529" stop-color="#F5C627"/><stop offset="0.2549" stop-color="#F5C526"/><stop offset="0.27451" stop-color="#F5C526"/><stop offset="0.29412" stop-color="#F5C425"/><stop offset="0.31373" stop-color="#F5C425"/><stop offset="0.33333" stop-color="#F5C324"/><stop offset="0.35294" stop-color="#F5C224"/><stop offset="0.37255" stop-color="#F5C123"/><stop offset="0.39216" stop-color="#F5C122"/><stop offset="0.41177" stop-color="#F5C022"/><stop offset="0.43137" stop-color="#F5BF21"/><stop offset="0.45098" stop-color="#F5BE20"/><stop offset="0.47059" stop-color="#F5BD1F"/><stop offset="0.4902" stop-color="#F4BC1E"/><stop offset="0.5098" stop-color="#F4BB1E"/><stop offset="0.52941" stop-color="#F4BA1D"/><stop offset="0.54902" stop-color="#F4B91C"/><stop offset="0.56863" stop-color="#F4B71B"/><stop offset="0.58824" stop-color="#F4B61A"/><stop offset="0.60784" stop-color="#F4B519"/><stop offset="0.62745" stop-color="#F4B418"/><stop offset="0.64706" stop-color="#F4B317"/><stop offset="0.66667" stop-color="#F4B116"/><stop offset="0.68628" stop-color="#F4B015"/><stop offset="0.70588" stop-color="#F3AE14"/><stop offset="0.72549" stop-color="#F3AD12"/><stop offset="0.7451" stop-color="#F3AC11"/><stop offset="0.76471" stop-color="#F3AA10"/><stop offset="0.78431" stop-color="#F3A90F"/><stop offset="0.80392" stop-color="#F3A70E"/><stop offset="0.82353" stop-color="#F3A50C"/><stop offset="0.84314" stop-color="#F3A40B"/><stop offset="0.86274" stop-color="#F2A20A"/><stop offset="0.88235" stop-color="#F2A008"/><stop offset="0.90196" stop-color="#F29F07"/><stop offset="0.92157" stop-color="#F29D05"/><stop offset="0.94118" stop-color="#F29B04"/><stop offset="0.96078" stop-color="#F29903"/><stop offset="0.98039" stop-color="#F29701"/><stop offset="1" stop-color="#F29600"/></linearGradient><linearGradient x1="0.92822" y1="111.515" x2="264.928" y2="111.515" gradientUnits="userSpaceOnUse" spreadMethod="reflect" id="fill2"><stop offset="0" stop-color="#F6CA2A"/><stop offset="0.01961" stop-color="#F5C929"/><stop offset="0.03922" stop-color="#F5C929"/><stop offset="0.05882" stop-color="#F5C929"/><stop offset="0.07843" stop-color="#F5C929"/><stop offset="0.09804" stop-color="#F5C929"/><stop offset="0.11765" stop-color="#F5C929"/><stop offset="0.13725" stop-color="#F5C828"/><stop offset="0.15686" stop-color="#F5C828"/><stop offset="0.17647" stop-color="#F5C728"/><stop offset="0.19608" stop-color="#F5C728"/><stop offset="0.21569" stop-color="#F5C727"/><stop offset="0.23529" stop-color="#F5C627"/><stop offset="0.2549" stop-color="#F5C526"/><stop offset="0.27451" stop-color="#F5C526"/><stop offset="0.29412" stop-color="#F5C425"/><stop offset="0.31373" stop-color="#F5C425"/><stop offset="0.33333" stop-color="#F5C324"/><stop offset="0.35294" stop-color="#F5C224"/><stop offset="0.37255" stop-color="#F5C123"/><stop offset="0.39216" stop-color="#F5C122"/><stop offset="0.41177" stop-color="#F5C022"/><stop offset="0.43137" stop-color="#F5BF21"/><stop offset="0.45098" stop-color="#F5BE20"/><stop offset="0.47059" stop-color="#F5BD1F"/><stop offset="0.4902" stop-color="#F4BC1E"/><stop offset="0.5098" stop-color="#F4BB1E"/><stop offset="0.52941" stop-color="#F4BA1D"/><stop offset="0.54902" stop-color="#F4B91C"/><stop offset="0.56863" stop-color="#F4B71B"/><stop offset="0.58824" stop-color="#F4B61A"/><stop offset="0.60784" stop-color="#F4B519"/><stop offset="0.62745" stop-color="#F4B418"/><stop offset="0.64706" stop-color="#F4B317"/><stop offset="0.66667" stop-color="#F4B116"/><stop offset="0.68628" stop-color="#F4B015"/><stop offset="0.70588" stop-color="#F3AE14"/><stop offset="0.72549" stop-color="#F3AD12"/><stop offset="0.7451" stop-color="#F3AC11"/><stop offset="0.76471" stop-color="#F3AA10"/><stop offset="0.78431" stop-color="#F3A90F"/><stop offset="0.80392" stop-color="#F3A70E"/><stop offset="0.82353" stop-color="#F3A50C"/><stop offset="0.84314" stop-color="#F3A40B"/><stop offset="0.86274" stop-color="#F2A20A"/><stop offset="0.88235" stop-color="#F2A008"/><stop offset="0.90196" stop-color="#F29F07"/><stop offset="0.92157" stop-color="#F29D05"/><stop offset="0.94118" stop-color="#F29B04"/><stop offset="0.96078" stop-color="#F29903"/><stop offset="0.98039" stop-color="#F29701"/><stop offset="1" stop-color="#F29600"/></linearGradient><linearGradient x1="1370.09" y1="1524.14" x2="1606.75" y2="1217.72" gradientUnits="userSpaceOnUse" spreadMethod="reflect" id="fill3"><stop offset="0" stop-color="#F5C30B"/><stop offset="0.02273" stop-color="#F4C20A"/><stop offset="0.04545" stop-color="#F4C20A"/><stop offset="0.06818" stop-color="#F4C20A"/><stop offset="0.09091" stop-color="#F4C20A"/><stop offset="0.11364" stop-color="#F4C20A"/><stop offset="0.13636" stop-color="#F4C10A"/><stop offset="0.15909" stop-color="#F4C10A"/><stop offset="0.18182" stop-color="#F4C10A"/><stop offset="0.20455" stop-color="#F4C00A"/><stop offset="0.22727" stop-color="#F4C00A"/><stop offset="0.25" stop-color="#F4BF0A"/><stop offset="0.27273" stop-color="#F4BF0A"/><stop offset="0.29546" stop-color="#F4BE09"/><stop offset="0.31818" stop-color="#F4BD09"/><stop offset="0.34091" stop-color="#F4BD09"/><stop offset="0.36364" stop-color="#F4BC09"/><stop offset="0.38636" stop-color="#F4BB09"/><stop offset="0.40909" stop-color="#F4BA08"/><stop offset="0.43182" stop-color="#F4B908"/><stop offset="0.45454" stop-color="#F4B808"/><stop offset="0.47727" stop-color="#F4B708"/><stop offset="0.5" stop-color="#F4B608"/><stop offset="0.52273" stop-color="#F4B507"/><stop offset="0.54545" stop-color="#F4B407"/><stop offset="0.56818" stop-color="#F3B307"/><stop offset="0.59091" stop-color="#F3B206"/><stop offset="0.61364" stop-color="#F3B006"/><stop offset="0.63636" stop-color="#F3AF06"/><stop offset="0.65909" stop-color="#F3AE05"/><stop offset="0.68182" stop-color="#F3AD05"/><stop offset="0.70455" stop-color="#F3AB05"/><stop offset="0.72727" stop-color="#F3AA04"/><stop offset="0.75" stop-color="#F3A804"/><stop offset="0.77273" stop-color="#F3A704"/><stop offset="0.79545" stop-color="#F3A503"/><stop offset="0.81818" stop-color="#F2A403"/><stop offset="0.84091" stop-color="#F2A203"/><stop offset="0.86364" stop-color="#F2A002"/><stop offset="0.88636" stop-color="#F29F02"/><stop offset="0.90909" stop-color="#F29D01"/><stop offset="0.93182" stop-color="#F29B01"/><stop offset="0.95455" stop-color="#F29900"/><stop offset="0.97727" stop-color="#F29700"/><stop offset="1" stop-color="#F29600"/></linearGradient><linearGradient x1="3776.42" y1="1533.93" x2="3776.42" y2="1604.93" gradientUnits="userSpaceOnUse" spreadMethod="reflect" id="fill4"><stop offset="0" stop-color="#0095FF"/><stop offset="0.00633" stop-color="#0094FE"/><stop offset="0.01266" stop-color="#0094FE"/><stop offset="0.01899" stop-color="#0094FE"/><stop offset="0.02532" stop-color="#0094FE"/><stop offset="0.03165" stop-color="#0094FE"/><stop offset="0.03797" stop-color="#0094FE"/><stop offset="0.0443" stop-color="#0094FE"/><stop offset="0.05063" stop-color="#0094FE"/><stop offset="0.05696" stop-color="#0094FE"/><stop offset="0.06329" stop-color="#0094FE"/><stop offset="0.06962" stop-color="#0094FD"/><stop offset="0.07595" stop-color="#0094FD"/><stop offset="0.08228" stop-color="#0093FD"/><stop offset="0.08861" stop-color="#0093FD"/><stop offset="0.09494" stop-color="#0093FD"/><stop offset="0.10127" stop-color="#0093FC"/><stop offset="0.10759" stop-color="#0093FC"/><stop offset="0.11392" stop-color="#0093FC"/><stop offset="0.12025" stop-color="#0092FC"/><stop offset="0.12658" stop-color="#0092FB"/><stop offset="0.13291" stop-color="#0092FB"/><stop offset="0.13924" stop-color="#0092FB"/><stop offset="0.14557" stop-color="#0091FA"/><stop offset="0.1519" stop-color="#0091FA"/><stop offset="0.15823" stop-color="#0091F9"/><stop offset="0.16456" stop-color="#0091F9"/><stop offset="0.17089" stop-color="#0090F9"/><stop offset="0.17721" stop-color="#0090F8"/><stop offset="0.18354" stop-color="#0090F8"/><stop offset="0.18987" stop-color="#008FF7"/><stop offset="0.1962" stop-color="#008FF7"/><stop offset="0.20253" stop-color="#008FF7"/><stop offset="0.20886" stop-color="#008EF6"/><stop offset="0.21519" stop-color="#008EF6"/><stop offset="0.22152" stop-color="#008EF5"/><stop offset="0.22785" stop-color="#008DF5"/><stop offset="0.23418" stop-color="#008DF4"/><stop offset="0.24051" stop-color="#008CF4"/><stop offset="0.24683" stop-color="#008CF3"/><stop offset="0.25317" stop-color="#008CF2"/><stop offset="0.25949" stop-color="#008BF2"/><stop offset="0.26582" stop-color="#008BF1"/><stop offset="0.27215" stop-color="#008AF1"/><stop offset="0.27848" stop-color="#008AF0"/><stop offset="0.28481" stop-color="#0089EF"/><stop offset="0.29114" stop-color="#0089EF"/><stop offset="0.29747" stop-color="#0088EE"/><stop offset="0.3038" stop-color="#0088ED"/><stop offset="0.31013" stop-color="#0087ED"/><stop offset="0.31646" stop-color="#0087EC"/><stop offset="0.32278" stop-color="#0086EB"/><stop offset="0.32911" stop-color="#0086EB"/><stop offset="0.33544" stop-color="#0085EA"/><stop offset="0.34177" stop-color="#0085E9"/><stop offset="0.3481" stop-color="#0084E9"/><stop offset="0.35443" stop-color="#0084E8"/><stop offset="0.36076" stop-color="#0083E7"/><stop offset="0.36709" stop-color="#0083E6"/><stop offset="0.37342" stop-color="#0082E5"/><stop offset="0.37975" stop-color="#0081E5"/><stop offset="0.38608" stop-color="#0081E4"/><stop offset="0.39241" stop-color="#0080E3"/><stop offset="0.39873" stop-color="#0080E2"/><stop offset="0.40506" stop-color="#007FE1"/><stop offset="0.41139" stop-color="#007EE0"/><stop offset="0.41772" stop-color="#007EE0"/><stop offset="0.42405" stop-color="#007DDF"/><stop offset="0.43038" stop-color="#007CDE"/><stop offset="0.43671" stop-color="#007CDD"/><stop offset="0.44304" stop-color="#007BDC"/><stop offset="0.44937" stop-color="#007ADB"/><stop offset="0.4557" stop-color="#007ADA"/><stop offset="0.46202" stop-color="#0079D9"/><stop offset="0.46835" stop-color="#0078D8"/><stop offset="0.47468" stop-color="#0078D7"/><stop offset="0.48101" stop-color="#0077D6"/><stop offset="0.48734" stop-color="#0076D5"/><stop offset="0.49367" stop-color="#0075D4"/><stop offset="0.5" stop-color="#0075D3"/><stop offset="0.50633" stop-color="#0074D2"/><stop offset="0.51266" stop-color="#0073D1"/><stop offset="0.51899" stop-color="#0072D0"/><stop offset="0.52532" stop-color="#0072CF"/><stop offset="0.53165" stop-color="#0071CE"/><stop offset="0.53798" stop-color="#0070CD"/><stop offset="0.5443" stop-color="#006FCC"/><stop offset="0.55063" stop-color="#006ECB"/><stop offset="0.55696" stop-color="#006DC9"/><stop offset="0.56329" stop-color="#006DC8"/><stop offset="0.56962" stop-color="#006CC7"/><stop offset="0.57595" stop-color="#006BC6"/><stop offset="0.58228" stop-color="#006AC5"/><stop offset="0.58861" stop-color="#0069C4"/><stop offset="0.59494" stop-color="#0068C2"/><stop offset="0.60127" stop-color="#0067C1"/><stop offset="0.6076" stop-color="#0067C0"/><stop offset="0.61392" stop-color="#0066BF"/><stop offset="0.62025" stop-color="#0065BE"/><stop offset="0.62658" stop-color="#0064BC"/><stop offset="0.63291" stop-color="#0063BB"/><stop offset="0.63924" stop-color="#0062BA"/><stop offset="0.64557" stop-color="#0061B9"/><stop offset="0.6519" stop-color="#0060B7"/><stop offset="0.65823" stop-color="#005FB6"/><stop offset="0.66456" stop-color="#005EB5"/><stop offset="0.67089" stop-color="#005DB3"/><stop offset="0.67721" stop-color="#005CB2"/><stop offset="0.68354" stop-color="#005BB1"/><stop offset="0.68987" stop-color="#005AAF"/><stop offset="0.6962" stop-color="#0059AE"/><stop offset="0.70253" stop-color="#0058AC"/><stop offset="0.70886" stop-color="#0057AB"/><stop offset="0.71519" stop-color="#0056AA"/><stop offset="0.72152" stop-color="#0055A8"/><stop offset="0.72785" stop-color="#0054A7"/><stop offset="0.73418" stop-color="#0053A5"/><stop offset="0.74051" stop-color="#0052A4"/><stop offset="0.74683" stop-color="#0051A3"/><stop offset="0.75317" stop-color="#0050A1"/><stop offset="0.75949" stop-color="#004FA0"/><stop offset="0.76582" stop-color="#004E9E"/><stop offset="0.77215" stop-color="#004C9D"/><stop offset="0.77848" stop-color="#004B9B"/><stop offset="0.78481" stop-color="#004A9A"/><stop offset="0.79114" stop-color="#004998"/><stop offset="0.79747" stop-color="#004896"/><stop offset="0.8038" stop-color="#004795"/><stop offset="0.81013" stop-color="#004693"/><stop offset="0.81646" stop-color="#004592"/><stop offset="0.82279" stop-color="#004390"/><stop offset="0.82911" stop-color="#00428F"/><stop offset="0.83544" stop-color="#00418D"/><stop offset="0.84177" stop-color="#00408B"/><stop offset="0.8481" stop-color="#003F8A"/><stop offset="0.85443" stop-color="#003D88"/><stop offset="0.86076" stop-color="#003C86"/><stop offset="0.86709" stop-color="#003B85"/><stop offset="0.87342" stop-color="#003A83"/><stop offset="0.87975" stop-color="#003881"/><stop offset="0.88608" stop-color="#003780"/><stop offset="0.8924" stop-color="#00367E"/><stop offset="0.89873" stop-color="#00357C"/><stop offset="0.90506" stop-color="#00337B"/><stop offset="0.91139" stop-color="#003279"/><stop offset="0.91772" stop-color="#003177"/><stop offset="0.92405" stop-color="#003075"/><stop offset="0.93038" stop-color="#002E74"/><stop offset="0.93671" stop-color="#002D72"/><stop offset="0.94304" stop-color="#002C70"/><stop offset="0.94937" stop-color="#002A6E"/><stop offset="0.9557" stop-color="#00296C"/><stop offset="0.96202" stop-color="#00286B"/><stop offset="0.96835" stop-color="#002669"/><stop offset="0.97468" stop-color="#002567"/><stop offset="0.98101" stop-color="#002465"/><stop offset="0.98734" stop-color="#002263"/><stop offset="0.99367" stop-color="#002161"/><stop offset="1" stop-color="#002060"/></linearGradient><linearGradient x1="196.256" y1="1335.16" x2="772.72" y2="1150.51" gradientUnits="userSpaceOnUse" spreadMethod="reflect" id="fill5"><stop offset="0" stop-color="#002060"/><stop offset="0.01" stop-color="#002060"/><stop offset="1" stop-color="#0095FF"/></linearGradient><linearGradient x1="656.111" y1="1241.05" x2="521.863" y2="1339.62" gradientUnits="userSpaceOnUse" spreadMethod="reflect" id="fill6"><stop offset="0" stop-color="#002060"/><stop offset="0.01" stop-color="#002060"/><stop offset="1" stop-color="#0095FF"/></linearGradient><linearGradient x1="907.279" y1="1002.59" x2="738.69" y2="1092.08" gradientUnits="userSpaceOnUse" spreadMethod="reflect" id="fill7"><stop offset="0" stop-color="#F6CA2A"/><stop offset="0.02273" stop-color="#F6C929"/><stop offset="0.04545" stop-color="#F6C929"/><stop offset="0.06818" stop-color="#F6C929"/><stop offset="0.09091" stop-color="#F7C929"/><stop offset="0.11364" stop-color="#F7C929"/><stop offset="0.13636" stop-color="#F7C828"/><stop offset="0.15909" stop-color="#F8C828"/><stop offset="0.18182" stop-color="#F8C828"/><stop offset="0.20455" stop-color="#F8C727"/><stop offset="0.22727" stop-color="#F9C727"/><stop offset="0.25" stop-color="#F9C626"/><stop offset="0.27273" stop-color="#F9C626"/><stop offset="0.29546" stop-color="#F9C525"/><stop offset="0.31818" stop-color="#FAC425"/><stop offset="0.34091" stop-color="#FAC424"/><stop offset="0.36364" stop-color="#FAC323"/><stop offset="0.38636" stop-color="#FAC222"/><stop offset="0.40909" stop-color="#FBC122"/><stop offset="0.43182" stop-color="#FBC021"/><stop offset="0.45454" stop-color="#FBBF20"/><stop offset="0.47727" stop-color="#FBBE1F"/><stop offset="0.5" stop-color="#FBBD1E"/><stop offset="0.52273" stop-color="#FCBC1D"/><stop offset="0.54545" stop-color="#FCBB1C"/><stop offset="0.56818" stop-color="#FCBA1B"/><stop offset="0.59091" stop-color="#FCB91A"/><stop offset="0.61364" stop-color="#FCB719"/><stop offset="0.63636" stop-color="#FCB618"/><stop offset="0.65909" stop-color="#FCB516"/><stop offset="0.68182" stop-color="#FDB415"/><stop offset="0.70455" stop-color="#FDB214"/><stop offset="0.72727" stop-color="#FDB112"/><stop offset="0.75" stop-color="#FDAF11"/><stop offset="0.77273" stop-color="#FDAE10"/><stop offset="0.79545" stop-color="#FDAC0E"/><stop offset="0.81818" stop-color="#FDAB0D"/><stop offset="0.84091" stop-color="#FDA90B"/><stop offset="0.86364" stop-color="#FDA70A"/><stop offset="0.88636" stop-color="#FDA608"/><stop offset="0.90909" stop-color="#FDA406"/><stop offset="0.93182" stop-color="#FDA205"/><stop offset="0.95455" stop-color="#FDA003"/><stop offset="0.97727" stop-color="#FD9E01"/><stop offset="1" stop-color="#FE9D00"/></linearGradient></defs><g transform="translate(-101 -828)"><path d="M3598.94 1295.15C3582.36 1295.15 3569.05 1301.01 3559 1312.74 3548.96 1324.47 3543.93 1343.88 3543.93 1370.97 3543.93 1397.82 3548.93 1417.11 3558.91 1428.84 3568.89 1440.57 3582.48 1446.43 3599.66 1446.43 3617.34 1446.43 3631.02 1440.69 3640.69 1429.2 3650.38 1417.71 3655.22 1397.09 3655.22 1367.34 3655.22 1342.31 3650.17 1324.02 3640.07 1312.47 3629.96 1300.92 3616.25 1295.15 3598.94 1295.15ZM3864.74 1291.16 3864.74 1345.21 3899.42 1345.21C3903.17 1345.21 3910.43 1344 3921.2 1341.59 3926.64 1340.5 3931.1 1337.72 3934.54 1333.24 3938 1328.77 3939.72 1323.63 3939.72 1317.82 3939.72 1309.24 3936.99 1302.65 3931.54 1298.05 3926.1 1293.45 3915.87 1291.16 3900.87 1291.16ZM1732.11 1291.16 1732.11 1345.21 1766.79 1345.21C1770.53 1345.21 1777.8 1344 1788.57 1341.59 1794.02 1340.5 1798.47 1337.72 1801.91 1333.24 1805.37 1328.77 1807.09 1323.63 1807.09 1317.82 1807.09 1309.24 1804.36 1302.65 1798.91 1298.05 1793.47 1293.45 1783.24 1291.16 1768.23 1291.16ZM3782.13 1237.46 3919.2 1237.46C3944.62 1237.46 3964.04 1239.64 3977.48 1243.99 3990.91 1248.35 4001.74 1256.42 4009.98 1268.21 4018.21 1280 4022.32 1294.36 4022.32 1311.29 4022.32 1326.05 4019.17 1338.77 4012.88 1349.48 4006.57 1360.18 3997.92 1368.86 3986.9 1375.51 3979.88 1379.74 3970.24 1383.25 3958.02 1386.03 3967.81 1389.3 3974.95 1392.56 3979.42 1395.83 3982.45 1398.01 3986.83 1402.67 3992.57 1409.81 3998.33 1416.95 4002.17 1422.46 4004.1 1426.34L4043.93 1503.39 3951 1503.39 3907.04 1422.13C3901.47 1411.61 3896.51 1404.77 3892.15 1401.63 3886.22 1397.52 3879.5 1395.46 3872 1395.46L3864.74 1395.46 3864.74 1503.39 3782.13 1503.39ZM3198.03 1237.46 3448.03 1237.46 3448.03 1303.13 3364.15 1303.13 3364.15 1503.39 3281.91 1503.39 3281.91 1303.13 3198.03 1303.13ZM2577.27 1237.46 2797.67 1237.46 2797.67 1294.24 2659.68 1294.24 2659.68 1336.51 2787.68 1336.51 2787.68 1390.74 2659.68 1390.74 2659.68 1443.17 2801.66 1443.17 2801.66 1503.39 2577.27 1503.39ZM2329.23 1237.46 2411.47 1237.46 2411.47 1437.91 2539.83 1437.91 2539.83 1503.39 2329.23 1503.39ZM2061.59 1237.46 2281.99 1237.46 2281.99 1294.24 2144 1294.24 2144 1336.51 2272 1336.51 2272 1390.74 2144 1390.74 2144 1443.17 2285.98 1443.17 2285.98 1503.39 2061.59 1503.39ZM1649.5 1237.46 1786.57 1237.46C1811.99 1237.46 1831.41 1239.64 1844.85 1243.99 1858.28 1248.35 1869.11 1256.42 1877.35 1268.21 1885.57 1280 1889.69 1294.36 1889.69 1311.29 1889.69 1326.05 1886.55 1338.77 1880.25 1349.48 1873.94 1360.18 1865.29 1368.86 1854.27 1375.51 1847.25 1379.74 1837.61 1383.25 1825.39 1386.03 1835.18 1389.3 1842.31 1392.56 1846.79 1395.83 1849.82 1398.01 1854.2 1402.67 1859.95 1409.81 1865.7 1416.95 1869.54 1422.46 1871.47 1426.34L1911.3 1503.39 1818.36 1503.39 1774.4 1422.13C1768.84 1411.61 1763.88 1404.77 1759.52 1401.63 1753.58 1397.52 1746.87 1395.46 1739.37 1395.46L1732.11 1395.46 1732.11 1503.39 1649.5 1503.39ZM1115.04 1237.46 1365.04 1237.46 1365.04 1303.13 1281.16 1303.13 1281.16 1503.39 1198.92 1503.39 1198.92 1303.13 1115.04 1303.13ZM4179.55 1232.93C4213.56 1232.93 4239.48 1239.25 4257.33 1251.88 4275.2 1264.52 4285.81 1284.63 4289.2 1312.2L4211.68 1316.73C4209.62 1304.76 4205.29 1296.05 4198.69 1290.61 4192.1 1285.17 4182.99 1282.45 4171.37 1282.45 4161.82 1282.45 4154.61 1284.48 4149.77 1288.53 4144.93 1292.58 4142.51 1297.51 4142.51 1303.31 4142.51 1307.54 4144.5 1311.35 4148.49 1314.74 4152.37 1318.25 4161.57 1321.51 4176.09 1324.53 4212.04 1332.27 4237.79 1340.1 4253.34 1348.02 4268.89 1355.95 4280.21 1365.77 4287.29 1377.5 4294.37 1389.23 4297.92 1402.35 4297.92 1416.87 4297.92 1433.92 4293.2 1449.64 4283.76 1464.03 4274.31 1478.42 4261.12 1489.33 4244.17 1496.77 4227.23 1504.21 4205.87 1507.93 4180.09 1507.93 4134.82 1507.93 4103.47 1499.22 4086.04 1481.81 4068.62 1464.39 4058.75 1442.26 4056.45 1415.41L4134.71 1410.52C4136.4 1423.22 4139.84 1432.89 4145.05 1439.54 4153.52 1450.3 4165.63 1455.69 4181.36 1455.69 4193.1 1455.69 4202.15 1452.93 4208.5 1447.43 4214.85 1441.93 4218.04 1435.55 4218.04 1428.29 4218.04 1421.4 4215.01 1415.23 4208.96 1409.79 4202.9 1404.35 4188.87 1399.21 4166.83 1394.37 4130.76 1386.27 4105.05 1375.51 4089.67 1362.08 4074.18 1348.66 4066.44 1331.55 4066.44 1310.75 4066.44 1297.08 4070.4 1284.17 4078.33 1272.02 4086.26 1259.87 4098.18 1250.31 4114.1 1243.36 4130.01 1236.4 4151.83 1232.93 4179.55 1232.93ZM3599.13 1232.93C3643.42 1232.93 3677.55 1244.81 3701.51 1268.57 3725.48 1292.34 3737.47 1325.62 3737.47 1368.43 3737.47 1399.51 3732.23 1425 3721.77 1444.89 3711.29 1464.79 3696.16 1480.27 3676.38 1491.33 3656.58 1502.4 3631.92 1507.93 3602.39 1507.93 3572.37 1507.93 3547.53 1503.15 3527.86 1493.6 3508.2 1484.04 3492.25 1468.93 3480.02 1448.25 3467.8 1427.57 3461.69 1401.69 3461.69 1370.61 3461.69 1327.19 3473.79 1293.39 3498 1269.21 3522.21 1245.02 3555.92 1232.93 3599.13 1232.93ZM974.012 1232.93C1008.02 1232.93 1033.95 1239.25 1051.81 1251.88 1069.66 1264.52 1080.28 1284.63 1083.67 1312.2L1006.15 1316.73C1004.09 1304.76 999.762 1296.05 993.165 1290.61 986.569 1285.17 977.462 1282.45 965.842 1282.45 956.28 1282.45 949.079 1284.48 944.237 1288.53 939.397 1292.58 936.975 1297.51 936.975 1303.31 936.975 1307.54 938.972 1311.35 942.967 1314.74 946.84 1318.25 956.038 1321.51 970.562 1324.53 1006.51 1332.27 1032.26 1340.1 1047.81 1348.02 1063.37 1355.95 1074.68 1365.77 1081.76 1377.5 1088.84 1389.23 1092.38 1402.35 1092.38 1416.87 1092.38 1433.92 1087.66 1449.64 1078.22 1464.03 1068.78 1478.42 1055.59 1489.33 1038.64 1496.77 1021.7 1504.21 1000.34 1507.93 974.556 1507.93 929.29 1507.93 897.942 1499.22 880.513 1481.81 863.084 1464.39 853.22 1442.26 850.92 1415.41L929.169 1410.52C930.863 1423.22 934.313 1432.89 939.517 1439.54 947.99 1450.3 960.093 1455.69 975.828 1455.69 987.568 1455.69 996.615 1452.93 1002.97 1447.43 1009.32 1441.93 1012.5 1435.55 1012.5 1428.29 1012.5 1421.4 1009.47 1415.23 1003.42 1409.79 997.372 1404.35 983.332 1399.21 961.304 1394.37 925.235 1386.27 899.515 1375.51 884.144 1362.08 868.652 1348.66 860.906 1331.55 860.906 1310.75 860.906 1297.08 864.869 1284.17 872.797 1272.02 880.724 1259.87 892.647 1250.31 908.563 1243.36 924.479 1236.4 946.295 1232.93 974.012 1232.93Z" fill="url(#fill0)" fill-rule="evenodd"/><path d="M3055.92 1342.93 3055.92 1471.21 2943.92 1605.93 2831.92 1471.21 2831.92 1342.93 2943.92 1477.65Z" fill="url(#fill1)" fill-rule="evenodd"/><path d="M0.92822 0.0150982 129.696 0.0150982 264.928 111.515 129.696 223.015 0.92822 223.015 136.16 111.515Z" fill="url(#fill2)" fill-rule="evenodd" transform="matrix(-1.83697e-16 -1 -1 1.83697e-16 3168 1416)"/><path d="M1442.92 1237.93 1532.23 1237.93 1632.92 1503.93 1546.8 1503.93 1546.47 1502.92 1547.59 1503.75 1524.58 1431.08 1584.81 1386.17 1510.35 1386.17 1487.35 1313.51 1487.22 1313.9 1486.79 1312.5 1463.98 1386.17 1389.88 1386.17 1450.09 1431.06 1448.69 1435.59 1427.11 1503.75 1427.74 1503.28 1427.54 1503.93 1343.92 1503.93Z" fill="url(#fill3)" fill-rule="evenodd"/><path d="M3574.47 1579.77C3571.81 1580.72 3569.04 1581.56 3566.16 1582.29 3562.24 1583.34 3559.75 1584.37 3558.71 1585.39 3557.63 1586.44 3557.09 1587.63 3557.09 1588.96 3557.09 1590.49 3557.62 1591.74 3558.69 1592.7 3559.75 1593.67 3561.3 1594.16 3563.37 1594.16 3565.51 1594.16 3567.52 1593.63 3569.37 1592.59 3571.22 1591.54 3572.53 1590.26 3573.31 1588.75 3574.08 1587.24 3574.47 1585.28 3574.47 1582.87ZM4244.67 1566.52C4242.42 1566.52 4240.53 1567.46 4239.01 1569.33 4237.5 1571.21 4236.74 1574.35 4236.74 1578.77 4236.74 1582.9 4237.53 1585.92 4239.09 1587.84 4240.66 1589.77 4242.6 1590.73 4244.91 1590.73 4247.37 1590.73 4249.44 1589.76 4251.08 1587.82 4252.73 1585.88 4253.55 1582.72 4253.55 1578.34 4253.55 1574.37 4252.71 1571.41 4251.03 1569.45 4249.36 1567.5 4247.23 1566.52 4244.67 1566.52ZM4167.7 1563.52C4164.63 1563.52 4162.17 1564.74 4160.33 1567.19 4159.17 1568.71 4158.42 1570.98 4158.1 1574L4177.15 1574C4176.76 1570.25 4175.76 1567.57 4174.13 1565.95 4172.5 1564.33 4170.35 1563.52 4167.7 1563.52ZM3701.7 1563.52C3698.64 1563.52 3696.17 1564.74 3694.34 1567.19 3693.17 1568.71 3692.43 1570.98 3692.11 1574L3711.16 1574C3710.77 1570.25 3709.77 1567.57 3708.14 1565.95 3706.51 1564.33 3704.36 1563.52 3701.7 1563.52ZM4038.2 1553.18 4057.53 1553.18 4057.53 1603.78 4038.2 1603.78ZM3880.17 1553.18 3899.5 1553.18 3899.5 1603.78 3880.17 1603.78ZM3461.45 1553.18 3481.56 1553.18 3491.35 1585.25 3501.5 1553.18 3521 1553.18 3499.58 1603.78 3482.42 1603.78ZM3421.27 1553.18 3440.6 1553.18 3440.6 1603.78 3421.27 1603.78ZM4166.89 1552.04C4174.11 1552.04 4179.8 1553.13 4183.99 1555.32 4188.16 1557.52 4191.34 1560.69 4193.53 1564.85 4195.71 1569.02 4196.8 1574.43 4196.8 1581.1L4196.8 1583.29 4158.05 1583.29C4158.41 1586.41 4159.24 1588.73 4160.58 1590.25 4162.44 1592.44 4164.88 1593.54 4167.89 1593.54 4169.78 1593.54 4171.59 1593.06 4173.3 1592.11 4174.34 1591.51 4175.47 1590.44 4176.67 1588.92L4195.71 1590.68C4192.8 1595.76 4189.29 1599.41 4185.17 1601.62 4181.06 1603.82 4175.15 1604.93 4167.45 1604.93 4160.78 1604.93 4155.52 1603.98 4151.69 1602.09 4147.86 1600.2 4144.69 1597.2 4142.17 1593.09 4139.66 1588.97 4138.4 1584.14 4138.4 1578.58 4138.4 1570.67 4140.92 1564.27 4145.97 1559.37 4151.02 1554.48 4157.99 1552.04 4166.89 1552.04ZM3961.7 1552.04C3965.72 1552.04 3968.91 1552.75 3971.25 1554.18 3973.6 1555.61 3975.52 1557.74 3977.01 1560.56 3980.04 1557.26 3982.81 1555.01 3985.31 1553.82 3987.8 1552.63 3990.88 1552.04 3994.55 1552.04 3999.96 1552.04 4004.18 1553.65 4007.21 1556.87 4010.25 1560.1 4011.77 1565.14 4011.77 1572L4011.77 1603.78 3992.39 1603.78 3992.39 1574.96C3992.39 1572.67 3991.95 1570.97 3991.07 1569.86 3989.78 1568.11 3988.17 1567.24 3986.24 1567.24 3983.97 1567.24 3982.14 1568.06 3980.75 1569.71 3979.37 1571.37 3978.67 1574.02 3978.67 1577.67L3978.67 1603.78 3959.3 1603.78 3959.3 1575.91C3959.3 1573.69 3959.17 1572.18 3958.91 1571.38 3958.5 1570.11 3957.79 1569.09 3956.77 1568.31 3955.75 1567.53 3954.57 1567.14 3953.2 1567.14 3950.97 1567.14 3949.15 1567.98 3947.72 1569.67 3946.29 1571.35 3945.57 1574.11 3945.57 1577.96L3945.57 1603.78 3926.2 1603.78 3926.2 1553.18 3944.24 1553.18 3944.24 1560.56C3946.85 1557.48 3949.47 1555.29 3952.11 1553.99 3954.76 1552.69 3957.95 1552.04 3961.7 1552.04ZM3700.89 1552.04C3708.12 1552.04 3713.81 1553.13 3717.99 1555.32 3722.17 1557.52 3725.35 1560.69 3727.54 1564.85 3729.71 1569.02 3730.81 1574.43 3730.81 1581.1L3730.81 1583.29 3692.06 1583.29C3692.42 1586.41 3693.25 1588.73 3694.58 1590.25 3696.45 1592.44 3698.89 1593.54 3701.9 1593.54 3703.79 1593.54 3705.59 1593.06 3707.31 1592.11 3708.35 1591.51 3709.47 1590.44 3710.68 1588.92L3729.71 1590.68C3726.81 1595.76 3723.29 1599.41 3719.18 1601.62 3715.07 1603.82 3709.16 1604.93 3701.46 1604.93 3694.79 1604.93 3689.53 1603.98 3685.7 1602.09 3681.87 1600.2 3678.7 1597.2 3676.18 1593.09 3673.66 1588.97 3672.41 1584.14 3672.41 1578.58 3672.41 1570.67 3674.93 1564.27 3679.98 1559.37 3685.03 1554.48 3692 1552.04 3700.89 1552.04ZM3565.31 1552.04C3571.1 1552.04 3575.75 1552.36 3579.27 1553.01 3582.79 1553.66 3585.71 1555.02 3588.05 1557.09 3589.7 1558.52 3591 1560.54 3591.94 1563.16 3592.9 1565.78 3593.37 1568.28 3593.37 1570.67L3593.37 1593.01C3593.37 1595.4 3593.52 1597.26 3593.83 1598.61 3594.12 1599.96 3594.78 1601.69 3595.79 1603.78L3577.65 1603.78C3576.93 1602.48 3576.45 1601.49 3576.23 1600.81 3576.01 1600.12 3575.79 1599.05 3575.56 1597.59 3573.03 1600.04 3570.52 1601.78 3568.02 1602.83 3564.59 1604.23 3560.62 1604.93 3556.09 1604.93 3550.08 1604.93 3545.52 1603.53 3542.4 1600.73 3539.28 1597.94 3537.72 1594.49 3537.72 1590.39 3537.72 1586.55 3538.84 1583.39 3541.09 1580.91 3543.34 1578.43 3547.48 1576.59 3553.53 1575.38 3560.78 1573.92 3565.48 1572.9 3567.63 1572.31 3569.79 1571.72 3572.07 1570.95 3574.47 1570 3574.47 1567.62 3573.98 1565.95 3573 1565 3572.02 1564.04 3570.29 1563.57 3567.82 1563.57 3564.66 1563.57 3562.28 1564.07 3560.7 1565.09 3559.47 1565.89 3558.47 1567.38 3557.71 1569.57L3539.23 1567.62C3539.93 1564.38 3540.94 1561.83 3542.25 1559.97 3543.57 1558.11 3545.46 1556.5 3547.93 1555.13 3549.7 1554.15 3552.14 1553.39 3555.24 1552.85 3558.34 1552.31 3561.69 1552.04 3565.31 1552.04ZM3393.35 1552.04C3396.2 1552.04 3399.32 1552.93 3402.7 1554.7L3396.72 1568.52C3394.44 1567.57 3392.63 1567.09 3391.3 1567.09 3388.77 1567.09 3386.8 1568.14 3385.42 1570.24 3383.42 1573.19 3382.43 1578.72 3382.43 1586.82L3382.43 1603.78 3363 1603.78 3363 1553.18 3381.09 1553.18 3381.09 1561.47C3382.83 1557.88 3384.64 1555.41 3386.48 1554.06 3388.33 1552.71 3390.62 1552.04 3393.35 1552.04ZM3301.53 1548.13 3301.53 1563.71 3306.8 1563.71C3310.94 1563.71 3313.86 1562.99 3315.53 1561.54 3317.21 1560.1 3318.05 1558.25 3318.05 1555.99 3318.05 1553.8 3317.32 1551.94 3315.86 1550.42 3314.41 1548.89 3311.67 1548.13 3307.65 1548.13ZM4253.41 1533.93 4272.92 1533.93 4272.92 1603.78 4254.83 1603.78 4254.83 1596.3C4252.3 1599.48 4249.99 1601.62 4247.9 1602.74 4245.11 1604.2 4242.01 1604.93 4238.59 1604.93 4231.72 1604.93 4226.47 1602.31 4222.85 1597.07 4219.23 1591.82 4217.42 1585.45 4217.42 1577.96 4217.42 1569.57 4219.41 1563.15 4223.42 1558.71 4227.43 1554.26 4232.51 1552.04 4238.69 1552.04 4241.69 1552.04 4244.42 1552.54 4246.88 1553.56 4249.33 1554.58 4251.5 1556.1 4253.41 1558.14ZM4107.4 1533.93 4107.4 1553.18 4118.04 1553.18 4118.04 1567.38 4107.4 1567.38 4107.4 1585.31C4107.4 1587.46 4107.61 1588.89 4108.02 1589.59 4108.66 1590.67 4109.76 1591.2 4111.34 1591.2 4112.77 1591.2 4114.77 1590.79 4117.33 1589.97L4118.76 1603.36C4113.98 1604.4 4109.51 1604.93 4105.37 1604.93 4100.55 1604.93 4097.01 1604.31 4094.73 1603.07 4092.45 1601.83 4090.76 1599.95 4089.66 1597.43 4088.58 1594.91 4088.03 1590.83 4088.03 1585.18L4088.03 1567.38 4080.91 1567.38 4080.91 1553.18 4088.03 1553.18 4088.03 1543.89ZM4038.2 1533.93 4057.53 1533.93 4057.53 1547.13 4038.2 1547.13ZM3880.17 1533.93 3899.5 1533.93 3899.5 1547.13 3880.17 1547.13ZM3801.72 1533.93 3823.24 1533.93 3823.24 1586.58 3856.81 1586.58 3856.81 1603.78 3801.72 1603.78ZM3641.41 1533.93 3641.41 1553.18 3652.05 1553.18 3652.05 1567.38 3641.41 1567.38 3641.41 1585.31C3641.41 1587.46 3641.62 1588.89 3642.03 1589.59 3642.67 1590.67 3643.77 1591.2 3645.35 1591.2 3646.78 1591.2 3648.77 1590.79 3651.34 1589.97L3652.77 1603.36C3647.98 1604.4 3643.52 1604.93 3639.37 1604.93 3634.56 1604.93 3631.02 1604.31 3628.74 1603.07 3626.46 1601.83 3624.77 1599.95 3623.67 1597.43 3622.59 1594.91 3622.04 1590.83 3622.04 1585.18L3622.04 1567.38 3614.92 1567.38 3614.92 1553.18 3622.04 1553.18 3622.04 1543.89ZM3421.27 1533.93 3440.6 1533.93 3440.6 1547.13 3421.27 1547.13ZM3279.92 1533.93 3315.68 1533.93C3323.46 1533.93 3329.3 1535.79 3333.18 1539.5 3337.06 1543.22 3338.99 1548.51 3338.99 1555.37 3338.99 1562.42 3336.88 1567.93 3332.65 1571.91 3328.42 1575.88 3321.97 1577.86 3313.3 1577.86L3301.53 1577.86 3301.53 1603.78 3279.92 1603.78Z" fill="url(#fill4)" fill-rule="evenodd"/><path d="M471.693 1513.83C336.764 1501.91 239.782 1371.12 255.075 1221.68 270.368 1072.26 392.148 960.787 527.073 972.708 606.858 979.758 677.196 1029.5 715.488 1105.96L622.961 1164.75C590.258 1086.23 508.417 1057.73 440.166 1101.09 371.919 1144.46 343.101 1243.27 375.809 1321.79 396.022 1370.33 436.36 1401.83 482.793 1405.36Z" fill="url(#fill5)" fill-rule="evenodd"/><path d="M714.964 1271.67C714.964 1271.67 612.615 1364.39 608.25 1364.26 607.826 1364.26 606.32 1364.77 603.923 1365.74 577.624 1388.68 549.289 1402 518.903 1405.7 497.408 1416.42 479.139 1426.07 474.025 1430.02 468.837 1434.06 445.05 1441.09 416.978 1448.38 392.587 1454.73 364.94 1461.27 343.487 1466.22 344.615 1467.07 345.763 1467.92 346.886 1468.73 361.357 1479.19 376.972 1488.01 393.736 1495.22 403.718 1499.51 413.92 1503.1 424.321 1505.98 445.612 1511.9 467.788 1514.83 490.852 1514.83 542.848 1514.83 588.691 1496.33 628.434 1459.33L628.434 1511.12 728.487 1511.12 728.487 1268.83C720.194 1270.62 714.964 1271.67 714.964 1271.67" fill="#F6CA2A" fill-rule="evenodd"/><path d="M523.487 1238.83 654.487 1238.83 654.487 1341.83 523.487 1341.83Z" fill="url(#fill6)" fill-rule="evenodd"/><path d="M728.487 1203.83 728.487 1305.46 714.949 1293.94C654.091 1371.3 533.551 1465.45 424.004 1505.84 413.588 1502.96 403.372 1499.38 393.381 1495.08 392.636 1494.75 391.912 1494.45 391.167 1494.11 375.21 1487.1 360.323 1478.6 346.486 1468.61 350.175 1467.98 353.958 1467.28 357.847 1466.49 377.671 1462.48 397.369 1456.2 416.648 1448.28 552.163 1392.62 667.671 1255.74 665.536 1252.52 664.449 1250.88 660.157 1247.31 655.723 1243.85 662.455 1235.79 665.898 1230.83 665.514 1230.25 665.152 1229.72 664.449 1228.97 663.52 1228.08L728.487 1203.83" fill="#F29600" fill-rule="evenodd"/><path d="M754.488 1168.83 750.769 1192.5 735.396 1290.21 711.648 1269.93C667.396 1326.32 591.534 1391.65 511.315 1438.55 470.343 1462.52 428.245 1481.68 388.654 1492.39 366.371 1498.43 344.867 1501.79 324.813 1501.83 298.068 1501.88 273.53 1494.84 254.119 1483.22 206.33 1454.64 189.493 1398.23 246.524 1351.01 238.887 1359.26 216.74 1413.62 254.119 1437.42 271.841 1448.72 302.99 1453.14 355.418 1442.51 361.831 1441.21 368.217 1439.67 374.588 1437.91 446.009 1418.24 514.611 1371.31 566.902 1326.85 571.5 1322.94 575.962 1319.05 580.304 1315.22 613.943 1285.32 639.464 1257.82 652.567 1242.1 659.278 1234.04 662.715 1229.07 662.333 1228.49 661.972 1227.96 661.266 1227.21 660.345 1226.32 654.816 1221.14 641.111 1211.23 641.111 1211.23L754.488 1168.83" fill="#F6CA2A" fill-rule="evenodd"/><path d="M754.417 1029.15 807.511 1029.15 823.917 971.09 840.324 1029.15 893.418 1029.15 850.464 1065.03 866.871 1123.09 823.917 1087.21 780.964 1123.09 797.371 1065.03Z" fill="#FF0000" fill-rule="evenodd"/><path d="M754.484 1029.75 806.813 1029.75 822.984 972.835 839.156 1029.75 891.485 1029.75 849.146 1064.92 865.318 1121.84 822.984 1086.66 780.651 1121.84 796.823 1064.92Z" fill="url(#fill7)" fill-rule="evenodd"/></g></svg>