<svg width="1948" height="1949" xmlns="http://www.w3.org/2000/svg" xmlns:xlink="http://www.w3.org/1999/xlink" xml:space="preserve" overflow="hidden"><defs><clipPath id="clip0"><rect x="1226" y="263" width="1948" height="1949"/></clipPath><linearGradient x1="1287.05" y1="1499.9" x2="2740.05" y2="953.896" gradientUnits="userSpaceOnUse" spreadMethod="reflect" id="fill1"><stop offset="0" stop-color="#002060"/><stop offset="0.01" stop-color="#002060"/><stop offset="1" stop-color="#0095FF"/></linearGradient><linearGradient x1="2462.92" y1="1253.11" x2="2122.08" y2="1449.89" gradientUnits="userSpaceOnUse" spreadMethod="reflect" id="fill2"><stop offset="0" stop-color="#002060"/><stop offset="0.01" stop-color="#002060"/><stop offset="1" stop-color="#0095FF"/></linearGradient><linearGradient x1="3048.67" y1="655.51" x2="2650.33" y2="885.489" gradientUnits="userSpaceOnUse" spreadMethod="reflect" id="fill3"><stop offset="0" stop-color="#F6CA2A"/><stop offset="0.0227273" stop-color="#F6C929"/><stop offset="0.0454545" stop-color="#F6C929"/><stop offset="0.0681818" stop-color="#F6C929"/><stop offset="0.0909091" stop-color="#F7C929"/><stop offset="0.113636" stop-color="#F7C929"/><stop offset="0.136364" stop-color="#F7C828"/><stop offset="0.159091" stop-color="#F8C828"/><stop offset="0.181818" stop-color="#F8C828"/><stop offset="0.204545" stop-color="#F8C727"/><stop offset="0.227273" stop-color="#F9C727"/><stop offset="0.25" stop-color="#F9C626"/><stop offset="0.272727" stop-color="#F9C626"/><stop offset="0.295455" stop-color="#F9C525"/><stop offset="0.318182" stop-color="#FAC425"/><stop offset="0.340909" stop-color="#FAC424"/><stop offset="0.363636" stop-color="#FAC323"/><stop offset="0.386364" stop-color="#FAC222"/><stop offset="0.409091" stop-color="#FBC122"/><stop offset="0.431818" stop-color="#FBC021"/><stop offset="0.454545" stop-color="#FBBF20"/><stop offset="0.477273" stop-color="#FBBE1F"/><stop offset="0.5" stop-color="#FBBD1E"/><stop offset="0.522727" stop-color="#FCBC1D"/><stop offset="0.545455" stop-color="#FCBB1C"/><stop offset="0.568182" stop-color="#FCBA1B"/><stop offset="0.590909" stop-color="#FCB91A"/><stop offset="0.613636" stop-color="#FCB719"/><stop offset="0.636364" stop-color="#FCB618"/><stop offset="0.659091" stop-color="#FCB516"/><stop offset="0.681818" stop-color="#FDB415"/><stop offset="0.704545" stop-color="#FDB214"/><stop offset="0.727273" stop-color="#FDB112"/><stop offset="0.75" stop-color="#FDAF11"/><stop offset="0.772727" stop-color="#FDAE10"/><stop offset="0.795455" stop-color="#FDAC0E"/><stop offset="0.818182" stop-color="#FDAB0D"/><stop offset="0.840909" stop-color="#FDA90B"/><stop offset="0.863636" stop-color="#FDA70A"/><stop offset="0.886364" stop-color="#FDA608"/><stop offset="0.909091" stop-color="#FDA406"/><stop offset="0.931818" stop-color="#FDA205"/><stop offset="0.954545" stop-color="#FDA003"/><stop offset="0.977273" stop-color="#FD9E01"/><stop offset="1" stop-color="#FE9D00"/></linearGradient></defs><g clip-path="url(#clip0)" transform="translate(-1226 -263)"><path d="M1226 1237.5C1226 699.298 1662.07 263 2200 263 2737.93 263 3174 699.298 3174 1237.5 3174 1775.7 2737.93 2212 2200 2212 1662.07 2212 1226 1775.7 1226 1237.5Z" fill="#FFFFFF" fill-rule="evenodd"/><path d="M2011.44 1883.44C1688.85 1854.98 1456.99 1542.71 1493.55 1185.97 1530.11 829.224 1821.26 563.101 2143.84 591.563 2334.58 608.392 2502.75 727.153 2594.3 909.681L2373.08 1050.04C2294.9 862.575 2099.24 794.532 1936.07 898.063 1772.9 1001.59 1704.01 1237.49 1782.19 1424.96 1830.52 1540.83 1926.96 1616.06 2037.98 1624.47Z" fill="url(#fill1)" fill-rule="evenodd"/><path d="M2591.76 1306.77C2591.76 1306.77 2347.72 1528 2337.31 1527.71 2336.3 1527.71 2332.7 1528.92 2326.99 1531.24 2264.28 1585.98 2196.72 1617.75 2124.26 1626.6 2073.02 1652.18 2029.45 1675.2 2017.26 1684.63 2004.88 1694.25 1948.17 1711.03 1881.23 1728.44 1823.08 1743.57 1757.15 1759.19 1706 1770.99 1708.69 1773.02 1711.42 1775.06 1714.11 1776.99 1748.61 1801.94 1785.84 1822.98 1825.81 1840.19 1849.61 1850.44 1873.94 1859 1898.75 1865.87 1949.51 1879.99 2002.39 1887 2057.38 1887 2181.36 1887 2290.67 1842.85 2385.43 1754.55L2385.43 1878.15 2624 1878.15 2624 1300C2604.23 1304.26 2591.76 1306.77 2591.76 1306.77" fill="#F6CA2A" fill-rule="evenodd"/><rect x="2136" y="1229" width="313" height="245" fill="url(#fill2)"/><path d="M2624 1144 2624 1386.96 2591.75 1359.41C2446.78 1544.36 2159.62 1769.46 1898.66 1866 1873.85 1859.13 1849.52 1850.56 1825.72 1840.29 1823.94 1839.52 1822.21 1838.79 1820.44 1837.97 1782.43 1821.21 1746.97 1800.88 1714 1777.01 1722.78 1775.51 1731.8 1773.81 1741.07 1771.92 1788.29 1762.34 1835.22 1747.33 1881.14 1728.4 2203.96 1595.35 2479.12 1268.09 2474.04 1260.4 2471.45 1256.47 2461.22 1247.95 2450.67 1239.67 2466.69 1220.4 2474.9 1208.54 2473.99 1207.14 2473.13 1205.88 2471.45 1204.09 2469.24 1201.96L2624 1144" fill="#F29600" fill-rule="evenodd"/><path d="M2687 1060 2678.12 1116.48 2641.42 1349.76 2584.7 1301.35C2479.04 1435.98 2297.89 1591.93 2106.34 1703.93 2008.5 1761.14 1907.97 1806.88 1813.44 1832.47 1760.22 1846.88 1708.88 1854.9 1660.99 1855 1597.13 1855.1 1538.54 1838.32 1492.18 1810.56 1378.08 1742.33 1337.86 1607.65 1474.04 1494.93 1455.81 1514.61 1402.93 1644.4 1492.18 1701.22 1534.51 1728.21 1608.88 1738.75 1734.07 1713.36 1749.38 1710.27 1764.64 1706.59 1779.85 1702.38 1950.39 1655.43 2114.21 1543.38 2239.06 1437.24 2250.05 1427.91 2260.71 1418.62 2271.07 1409.48 2351.4 1338.11 2412.34 1272.44 2443.62 1234.91 2459.65 1215.66 2467.86 1203.82 2466.94 1202.41 2466.08 1201.16 2464.4 1199.37 2462.19 1197.24 2449 1184.86 2416.27 1161.21 2416.27 1161.21L2687 1060" fill="#F6CA2A" fill-rule="evenodd"/><path d="M2687 728.362 2811.14 728.362 2849.5 592 2887.86 728.362 3012 728.362 2911.57 812.637 2949.93 948.999 2849.5 864.722 2749.07 948.999 2787.43 812.637Z" fill="url(#fill3)" fill-rule="evenodd"/></g></svg>