<svg xmlns="http://www.w3.org/2000/svg" xmlns:xlink="http://www.w3.org/1999/xlink" width="500" zoomAndPan="magnify" viewBox="0 0 375 374.999991" height="500" preserveAspectRatio="xMidYMid meet" version="1.0"><defs><g/><clipPath id="c14c17dab7"><path d="M 46.199219 40.25 L 329.277344 40.25 L 329.277344 323.328125 L 46.199219 323.328125 Z M 46.199219 40.25 " clip-rule="nonzero"/></clipPath><clipPath id="1f3c46f106"><path d="M 67.234375 108.40625 L 293.699219 108.40625 L 293.699219 254.441406 L 67.234375 254.441406 Z M 67.234375 108.40625 " clip-rule="nonzero"/></clipPath></defs><g clip-path="url(#c14c17dab7)"><path fill="#000000" d="M 187.738281 323.328125 C 109.542969 323.328125 46.199219 259.546875 46.199219 181.789062 C 46.199219 104.03125 109.542969 40.25 187.738281 40.25 C 265.933594 40.25 329.277344 103.59375 329.277344 181.789062 C 329.277344 259.984375 265.5 323.328125 187.738281 323.328125 Z M 187.738281 48.988281 C 114.347656 48.988281 54.9375 108.398438 54.9375 181.789062 C 54.9375 255.179688 114.347656 314.589844 187.738281 314.589844 C 261.128906 314.589844 320.542969 255.179688 320.542969 181.789062 C 320.542969 108.398438 260.691406 48.988281 187.738281 48.988281 Z M 187.738281 48.988281 " fill-opacity="1" fill-rule="nonzero"/></g><g clip-path="url(#1f3c46f106)"><path fill="#000000" d="M 257.851562 181.542969 C 277.597656 178.3125 287.5625 168.621094 291.648438 157.304688 C 294.386719 149.726562 294.386719 141.371094 291.648438 133.792969 C 286.621094 119.871094 272.695312 108.40625 242.609375 108.40625 L 159.238281 108.40625 L 160.140625 110.863281 L 164.566406 110.863281 L 164.566406 110.957031 C 172.144531 110.957031 178.289062 117.101562 178.289062 124.683594 L 193.757812 168.84375 L 203.878906 197.730469 L 203.878906 124.078125 C 203.878906 123.96875 203.890625 123.867188 203.910156 123.765625 C 204.382812 116.613281 210.328125 110.957031 217.601562 110.957031 C 218.960938 110.957031 221.328125 110.957031 221.328125 110.957031 C 263.113281 111.378906 267.367188 134.695312 267.472656 145.546875 C 267.375 155.671875 263.832031 176.835938 229.464844 180 L 229.464844 183.089844 C 263.832031 186.25 267.375 207.417969 267.472656 217.539062 C 267.367188 228.496094 260.691406 252.078125 217.804688 252.078125 L 220.339844 252.128906 C 218.085938 252.125 215.695312 252.03125 213.273438 251.765625 C 205.429688 250.648438 199.15625 247.199219 194.46875 240.773438 C 192.03125 237.402344 189.046875 231.226562 185.527344 222.246094 C 176.835938 197.449219 145.636719 108.40625 145.636719 108.40625 L 140.035156 108.40625 L 103.300781 213.855469 C 98.371094 227.464844 94.339844 236.4375 91.203125 240.773438 C 85.527344 248.554688 77.539062 252.441406 67.234375 252.441406 L 67.234375 254.679688 L 124.132812 254.679688 L 124.132812 252.441406 C 116.515625 252.441406 110.617188 251.242188 106.4375 248.839844 C 102.253906 246.4375 100.164062 242.460938 100.164062 236.910156 C 100.164062 233.3125 101.054688 229.035156 102.835938 224.082031 L 130.855469 143.652344 L 159.007812 224.082031 C 160.789062 229.035156 161.679688 233.3125 161.679688 236.910156 C 161.679688 242.460938 159.589844 246.4375 155.40625 248.839844 C 151.226562 251.242188 145.328125 252.441406 137.710938 252.441406 L 137.710938 254.679688 L 242.609375 254.679688 C 272.695312 254.679688 286.621094 243.214844 291.648438 229.296875 C 294.386719 221.71875 294.386719 213.363281 291.648438 205.785156 C 287.5625 194.46875 277.597656 184.777344 257.851562 181.542969 " fill-opacity="1" fill-rule="nonzero"/></g><path fill="#ffffff" d="M 312.296875 261.886719 C 312.804688 262.230469 313.273438 262.617188 313.703125 263.046875 C 314.136719 263.480469 314.519531 263.949219 314.859375 264.457031 C 315.203125 264.964844 315.492188 265.496094 315.726562 266.058594 C 315.964844 266.621094 316.144531 267.203125 316.269531 267.800781 C 316.394531 268.398438 316.460938 269 316.472656 269.613281 C 316.480469 270.222656 316.429688 270.828125 316.320312 271.429688 C 316.214844 272.03125 316.046875 272.613281 315.828125 273.183594 C 315.605469 273.753906 315.332031 274.292969 315.003906 274.8125 C 313.214844 277.296875 311.347656 279.726562 309.414062 282.105469 C 307.476562 284.480469 305.472656 286.796875 303.398438 289.054688 C 301.328125 291.3125 299.191406 293.507812 296.988281 295.636719 C 294.785156 297.769531 292.523438 299.835938 290.199219 301.832031 C 287.875 303.832031 285.496094 305.757812 283.058594 307.617188 C 280.617188 309.472656 278.128906 311.257812 275.585938 312.96875 C 273.042969 314.679688 270.453125 316.3125 267.8125 317.871094 C 265.171875 319.425781 262.488281 320.90625 259.761719 322.304688 C 257.035156 323.703125 254.269531 325.023438 251.464844 326.257812 C 248.660156 327.492188 245.824219 328.644531 242.949219 329.714844 C 240.078125 330.785156 237.175781 331.765625 234.246094 332.664062 C 231.316406 333.5625 228.363281 334.371094 225.382812 335.09375 C 222.40625 335.816406 219.410156 336.453125 216.394531 336.996094 C 213.378906 337.542969 210.347656 338 207.304688 338.367188 C 204.261719 338.734375 201.210938 339.011719 198.152344 339.199219 C 195.09375 339.386719 192.03125 339.484375 188.96875 339.492188 C 185.902344 339.496094 182.839844 339.414062 179.78125 339.238281 C 176.71875 339.066406 173.667969 338.800781 170.625 338.445312 C 167.578125 338.09375 164.550781 337.648438 161.53125 337.117188 C 158.511719 336.582031 155.511719 335.960938 152.53125 335.25 C 149.550781 334.539062 146.59375 333.742188 143.660156 332.859375 C 140.722656 331.972656 137.820312 331.003906 134.941406 329.945312 C 132.0625 328.890625 129.222656 327.75 126.410156 326.527344 C 123.601562 325.304688 120.832031 323.996094 118.097656 322.609375 C 115.363281 321.222656 112.675781 319.753906 110.03125 318.210938 C 107.382812 316.664062 104.785156 315.039062 102.234375 313.339844 C 99.683594 311.640625 97.1875 309.867188 94.742188 308.019531 C 92.296875 306.171875 89.90625 304.257812 87.574219 302.269531 C 85.242188 300.28125 82.96875 298.226562 80.757812 296.101562 C 78.546875 293.980469 76.398438 291.796875 74.316406 289.546875 C 72.234375 287.296875 70.222656 284.988281 68.273438 282.621094 C 66.328125 280.253906 64.453125 277.832031 62.652344 275.351562 C 62.324219 274.839844 62.046875 274.296875 61.824219 273.730469 C 61.597656 273.160156 61.433594 272.578125 61.320312 271.976562 C 61.210938 271.378906 61.15625 270.773438 61.164062 270.160156 C 61.167969 269.550781 61.234375 268.945312 61.355469 268.347656 C 61.476562 267.75 61.65625 267.171875 61.890625 266.605469 C 62.125 266.042969 62.414062 265.507812 62.75 265 C 63.089844 264.492188 63.472656 264.019531 63.902344 263.585938 C 64.332031 263.152344 64.796875 262.761719 65.300781 262.417969 L 81.289062 252.214844 C 81.8125 251.847656 82.367188 251.539062 82.953125 251.289062 C 83.539062 251.035156 84.144531 250.84375 84.773438 250.710938 C 85.398438 250.582031 86.027344 250.515625 86.667969 250.511719 C 87.304688 250.511719 87.9375 250.570312 88.5625 250.695312 C 89.191406 250.820312 89.796875 251.007812 90.386719 251.253906 C 90.976562 251.503906 91.53125 251.808594 92.058594 252.167969 C 92.585938 252.527344 93.074219 252.9375 93.515625 253.394531 C 93.960938 253.855469 94.355469 254.351562 94.699219 254.890625 C 96.070312 256.699219 97.492188 258.46875 98.96875 260.195312 C 100.441406 261.921875 101.964844 263.605469 103.535156 265.246094 C 105.105469 266.886719 106.722656 268.476562 108.386719 270.023438 C 110.046875 271.570312 111.753906 273.066406 113.503906 274.511719 C 115.253906 275.960938 117.042969 277.355469 118.871094 278.699219 C 120.703125 280.042969 122.570312 281.332031 124.476562 282.570312 C 126.378906 283.804688 128.320312 284.984375 130.292969 286.109375 C 132.265625 287.234375 134.269531 288.296875 136.300781 289.304688 C 138.335938 290.316406 140.398438 291.261719 142.488281 292.152344 C 144.578125 293.039062 146.691406 293.867188 148.828125 294.636719 C 150.964844 295.402344 153.121094 296.105469 155.300781 296.75 C 157.476562 297.390625 159.671875 297.96875 161.882812 298.484375 C 164.09375 299 166.316406 299.449219 168.554688 299.835938 C 170.792969 300.222656 173.039062 300.546875 175.296875 300.804688 C 177.550781 301.058594 179.8125 301.25 182.078125 301.378906 C 184.347656 301.503906 186.613281 301.566406 188.886719 301.558594 C 191.15625 301.554688 193.425781 301.484375 195.691406 301.347656 C 197.957031 301.210938 200.21875 301.011719 202.472656 300.746094 C 204.726562 300.476562 206.972656 300.148438 209.207031 299.75 C 211.445312 299.355469 213.664062 298.894531 215.875 298.367188 C 218.082031 297.84375 220.277344 297.253906 222.449219 296.605469 C 224.625 295.953125 226.78125 295.238281 228.914062 294.464844 C 231.046875 293.6875 233.15625 292.851562 235.242188 291.953125 C 237.328125 291.054688 239.386719 290.097656 241.414062 289.082031 C 243.445312 288.0625 245.445312 286.988281 247.414062 285.855469 C 249.378906 284.722656 251.3125 283.535156 253.214844 282.292969 C 255.113281 281.046875 256.972656 279.75 258.800781 278.398438 C 260.625 277.046875 262.40625 275.644531 264.148438 274.1875 C 265.894531 272.734375 267.59375 271.230469 269.25 269.679688 C 270.90625 268.125 272.515625 266.523438 274.078125 264.878906 C 275.644531 263.234375 277.160156 261.542969 278.625 259.808594 C 280.089844 258.078125 281.507812 256.300781 282.871094 254.488281 C 283.210938 253.945312 283.601562 253.445312 284.046875 252.988281 C 284.488281 252.527344 284.972656 252.113281 285.496094 251.75 C 286.023438 251.390625 286.578125 251.082031 287.167969 250.832031 C 287.753906 250.582031 288.359375 250.394531 288.988281 250.265625 C 289.613281 250.136719 290.246094 250.074219 290.882812 250.074219 C 291.523438 250.074219 292.152344 250.136719 292.78125 250.265625 C 293.40625 250.394531 294.011719 250.582031 294.597656 250.832031 C 295.1875 251.082031 295.742188 251.390625 296.269531 251.75 Z M 312.296875 261.886719 " fill-opacity="1" fill-rule="nonzero"/><g fill="#000000" fill-opacity="1"><g transform="translate(71.459745, 270.424069)"><g><path d="M 11.15625 7.46875 L 5.78125 1.0625 L 1.890625 2.25 L 0.015625 0.03125 L 17.4375 -5.03125 L 19.28125 -2.828125 L 11.21875 13.390625 L 9.296875 11.09375 Z M 12.375 5.0625 L 16.03125 -2.0625 L 8.359375 0.265625 Z M 12.375 5.0625 "/></g></g></g><g fill="#000000" fill-opacity="1"><g transform="translate(98.372489, 298.119166)"><g><path d="M 11.296875 -12.359375 L 17.203125 -8.234375 C 18.609375 -7.242188 19.507812 -6.160156 19.90625 -4.984375 C 20.300781 -3.816406 20.128906 -2.703125 19.390625 -1.640625 C 18.859375 -0.878906 18.191406 -0.375 17.390625 -0.125 C 16.585938 0.113281 15.753906 0.0625 14.890625 -0.28125 C 15.679688 0.507812 16.117188 1.390625 16.203125 2.359375 C 16.296875 3.328125 16.023438 4.269531 15.390625 5.1875 C 14.578125 6.351562 13.5 6.957031 12.15625 7 C 10.8125 7.050781 9.367188 6.539062 7.828125 5.46875 L 1.796875 1.25 Z M 12.171875 -8.703125 L 9.65625 -5.109375 L 13.140625 -2.671875 C 13.867188 -2.160156 14.554688 -1.921875 15.203125 -1.953125 C 15.847656 -1.992188 16.367188 -2.296875 16.765625 -2.859375 C 17.160156 -3.429688 17.257812 -4.015625 17.0625 -4.609375 C 16.863281 -5.203125 16.394531 -5.753906 15.65625 -6.265625 Z M 8.25 -3.078125 L 5.515625 0.828125 L 9 3.265625 C 9.90625 3.898438 10.726562 4.21875 11.46875 4.21875 C 12.207031 4.21875 12.800781 3.90625 13.25 3.28125 C 13.664062 2.675781 13.738281 2.023438 13.46875 1.328125 C 13.207031 0.628906 12.628906 -0.0234375 11.734375 -0.640625 Z M 8.25 -3.078125 "/></g></g></g><g fill="#000000" fill-opacity="1"><g transform="translate(130.926873, 317.550639)"><g><path d="M 15.609375 5.546875 L 12.96875 4.609375 L 15.265625 -1.875 L 7 -4.8125 L 4.703125 1.671875 L 2.0625 0.734375 L 7.625 -14.90625 L 10.265625 -13.96875 L 7.84375 -7.171875 L 16.109375 -4.234375 L 18.53125 -11.03125 L 21.171875 -10.09375 Z M 15.609375 5.546875 "/></g></g></g><g fill="#000000" fill-opacity="1"><g transform="translate(169.144374, 327.838653)"><g><path d="M 4.953125 0.53125 L 2.171875 0.234375 L 3.96875 -16.265625 L 6.75 -15.96875 Z M 4.953125 0.53125 "/></g></g></g><g fill="#000000" fill-opacity="1"><g transform="translate(196.993295, 328.959843)"><g><path d="M 4.6875 -3.03125 L 11.828125 -3.765625 L 12.09375 -1.25 L 2.171875 -0.21875 L 0.46875 -16.71875 L 3.25 -17.015625 Z M 4.6875 -3.03125 "/></g></g></g><g fill="#000000" fill-opacity="1"><g transform="translate(230.184173, 323.211061)"><g><path d="M 10.8125 -7.953125 L 2.953125 -5.078125 L 2.765625 -1.015625 L 0.03125 -0.015625 L 1.171875 -18.109375 L 3.875 -19.09375 L 16.40625 -6.015625 L 13.59375 -4.984375 Z M 8.96875 -9.9375 L 3.484375 -15.78125 L 3.078125 -7.78125 Z M 8.96875 -9.9375 "/></g></g></g><g fill="#000000" fill-opacity="1"><g transform="translate(265.283233, 307.276423)"><g><path d="M -3.265625 -18.078125 C -1.492188 -19.304688 0.414062 -19.941406 2.46875 -19.984375 L 2.921875 -17.296875 C 0.941406 -17.179688 -0.675781 -16.679688 -1.9375 -15.796875 C -2.632812 -15.316406 -3.09375 -14.8125 -3.3125 -14.28125 C -3.53125 -13.757812 -3.484375 -13.269531 -3.171875 -12.8125 C -2.859375 -12.363281 -2.410156 -12.109375 -1.828125 -12.046875 C -1.242188 -11.984375 -0.628906 -12.066406 0.015625 -12.296875 C 0.660156 -12.523438 1.378906 -12.75 2.171875 -12.96875 C 2.972656 -13.1875 3.734375 -13.359375 4.453125 -13.484375 C 5.171875 -13.609375 5.894531 -13.523438 6.625 -13.234375 C 7.351562 -12.941406 7.988281 -12.410156 8.53125 -11.640625 C 9.351562 -10.453125 9.535156 -9.171875 9.078125 -7.796875 C 8.617188 -6.421875 7.628906 -5.203125 6.109375 -4.140625 C 5.078125 -3.421875 3.9375 -2.914062 2.6875 -2.625 C 1.445312 -2.34375 0.238281 -2.273438 -0.9375 -2.421875 L -1.328125 -5.109375 C -0.203125 -4.941406 0.890625 -4.972656 1.953125 -5.203125 C 3.023438 -5.441406 3.929688 -5.816406 4.671875 -6.328125 C 5.472656 -6.878906 5.992188 -7.457031 6.234375 -8.0625 C 6.472656 -8.675781 6.414062 -9.238281 6.0625 -9.75 C 5.726562 -10.21875 5.269531 -10.484375 4.6875 -10.546875 C 4.101562 -10.617188 3.488281 -10.539062 2.84375 -10.3125 C 2.195312 -10.082031 1.484375 -9.851562 0.703125 -9.625 C -0.078125 -9.394531 -0.820312 -9.210938 -1.53125 -9.078125 C -2.238281 -8.941406 -2.960938 -9.007812 -3.703125 -9.28125 C -4.441406 -9.5625 -5.070312 -10.078125 -5.59375 -10.828125 C -6.394531 -11.984375 -6.578125 -13.21875 -6.140625 -14.53125 C -5.710938 -15.851562 -4.753906 -17.035156 -3.265625 -18.078125 Z M -3.265625 -18.078125 "/></g></g></g><g fill="#000000" fill-opacity="1"><g transform="translate(293.235416, 284.797726)"><g><path d="M 10.703125 -12.640625 L 8.890625 -10.515625 L 3.640625 -14.953125 L -2.03125 -8.25 L 3.21875 -3.8125 L 1.40625 -1.671875 L -11.265625 -12.390625 L -9.453125 -14.53125 L -3.953125 -9.875 L 1.71875 -16.578125 L -3.78125 -21.234375 L -1.96875 -23.359375 Z M 10.703125 -12.640625 "/></g></g></g></svg>