<svg xmlns="http://www.w3.org/2000/svg" xmlns:xlink="http://www.w3.org/1999/xlink" width="500" zoomAndPan="magnify" viewBox="0 0 375 374.999991" height="500" preserveAspectRatio="xMidYMid meet" version="1.0"><defs><g/><clipPath id="9b0af37f98"><path d="M 15.25 7.996094 L 359.933594 7.996094 L 359.933594 352.679688 L 15.25 352.679688 Z M 15.25 7.996094 " clip-rule="nonzero"/></clipPath><clipPath id="fa92a4064b"><path d="M 39.980469 91.082031 L 316.039062 91.082031 L 316.039062 269.324219 L 39.980469 269.324219 Z M 39.980469 91.082031 " clip-rule="nonzero"/></clipPath></defs><g clip-path="url(#9b0af37f98)"><path fill="#000000" d="M 187.59375 352.679688 C 92.378906 352.679688 15.25 275.019531 15.25 180.335938 C 15.25 85.65625 92.378906 7.996094 187.59375 7.996094 C 282.804688 7.996094 359.933594 85.125 359.933594 180.335938 C 359.933594 275.550781 282.273438 352.679688 187.59375 352.679688 Z M 187.59375 18.632812 C 98.230469 18.632812 25.890625 90.976562 25.890625 180.335938 C 25.890625 269.699219 98.230469 342.039062 187.59375 342.039062 C 276.953125 342.039062 349.292969 269.699219 349.292969 180.335938 C 349.292969 90.976562 276.421875 18.632812 187.59375 18.632812 Z M 187.59375 18.632812 " fill-opacity="1" fill-rule="nonzero"/></g><g clip-path="url(#fa92a4064b)"><path fill="#000000" d="M 272.339844 180.234375 C 296.40625 176.296875 308.554688 164.480469 313.535156 150.6875 C 316.875 141.449219 316.875 131.265625 313.535156 122.027344 C 307.40625 105.058594 290.429688 91.082031 253.757812 91.082031 L 152.128906 91.082031 L 153.230469 94.074219 L 158.625 94.074219 L 158.625 94.191406 C 167.863281 94.191406 175.355469 101.683594 175.355469 110.921875 L 194.210938 164.75 L 206.542969 199.964844 L 206.542969 110.1875 C 206.542969 110.054688 206.558594 109.925781 206.585938 109.804688 C 207.160156 101.085938 214.410156 94.191406 223.273438 94.191406 C 224.929688 94.191406 227.816406 94.191406 227.816406 94.191406 C 278.75 94.703125 283.9375 123.125 284.066406 136.355469 C 283.945312 148.695312 279.625 174.496094 237.734375 178.351562 L 237.734375 182.121094 C 279.625 185.972656 283.945312 211.773438 284.066406 224.113281 C 283.933594 237.46875 275.796875 266.214844 223.519531 266.214844 L 226.613281 266.277344 C 223.867188 266.273438 220.949219 266.160156 218 265.832031 C 208.433594 264.46875 200.789062 260.269531 195.074219 252.4375 C 192.101562 248.328125 188.464844 240.796875 184.171875 229.847656 C 173.578125 199.625 135.550781 91.082031 135.550781 91.082031 L 128.71875 91.082031 L 83.941406 219.621094 C 77.933594 236.210938 73.019531 247.152344 69.195312 252.4375 C 62.277344 261.917969 52.539062 266.65625 39.980469 266.65625 L 39.980469 269.386719 L 109.335938 269.386719 L 109.335938 266.65625 C 100.050781 266.65625 92.859375 265.195312 87.761719 262.269531 C 82.667969 259.339844 80.117188 254.492188 80.117188 247.726562 C 80.117188 243.339844 81.203125 238.128906 83.375 232.089844 L 117.53125 134.046875 L 151.847656 232.089844 C 154.019531 238.128906 155.105469 243.339844 155.105469 247.726562 C 155.105469 254.492188 152.558594 259.339844 147.457031 262.269531 C 142.363281 265.195312 135.171875 266.65625 125.886719 266.65625 L 125.886719 269.386719 L 253.757812 269.386719 C 290.429688 269.386719 307.40625 255.414062 313.535156 238.441406 C 316.875 229.203125 316.875 219.023438 313.535156 209.78125 C 308.554688 195.988281 296.40625 184.175781 272.339844 180.234375 " fill-opacity="1" fill-rule="nonzero"/></g><path fill="#ffffff" d="M 337.289062 276.699219 C 338.046875 277.21875 338.746094 277.804688 339.390625 278.457031 C 340.035156 279.113281 340.613281 279.824219 341.121094 280.589844 C 341.628906 281.351562 342.058594 282.160156 342.410156 283.007812 C 342.761719 283.855469 343.03125 284.730469 343.21875 285.628906 C 343.402344 286.527344 343.5 287.4375 343.511719 288.355469 C 343.519531 289.273438 343.445312 290.183594 343.277344 291.085938 C 343.113281 291.992188 342.863281 292.871094 342.53125 293.726562 C 342.199219 294.582031 341.785156 295.398438 341.292969 296.171875 C 339.101562 299.125 336.820312 302.011719 334.460938 304.832031 C 332.097656 307.648438 329.65625 310.398438 327.132812 313.074219 C 324.613281 315.753906 322.015625 318.355469 319.339844 320.882812 C 316.667969 323.410156 313.925781 325.855469 311.109375 328.222656 C 308.292969 330.589844 305.414062 332.875 302.464844 335.074219 C 299.515625 337.273438 296.507812 339.386719 293.4375 341.410156 C 290.367188 343.433594 287.238281 345.371094 284.054688 347.210938 C 280.875 349.054688 277.640625 350.804688 274.355469 352.460938 C 271.070312 354.117188 267.738281 355.675781 264.363281 357.136719 C 260.988281 358.597656 257.574219 359.960938 254.121094 361.226562 C 250.667969 362.488281 247.179688 363.652344 243.65625 364.710938 C 240.132812 365.773438 236.585938 366.730469 233.007812 367.585938 C 229.429688 368.4375 225.832031 369.1875 222.210938 369.835938 C 218.589844 370.480469 214.953125 371.019531 211.300781 371.453125 C 207.644531 371.886719 203.984375 372.214844 200.3125 372.4375 C 196.640625 372.660156 192.964844 372.773438 189.289062 372.78125 C 185.609375 372.789062 181.933594 372.691406 178.261719 372.484375 C 174.589844 372.28125 170.925781 371.96875 167.273438 371.550781 C 163.617188 371.128906 159.980469 370.605469 156.355469 369.976562 C 152.730469 369.347656 149.128906 368.613281 145.546875 367.773438 C 141.964844 366.933594 138.414062 365.992188 134.886719 364.945312 C 131.359375 363.898438 127.867188 362.753906 124.40625 361.503906 C 120.945312 360.253906 117.527344 358.90625 114.144531 357.460938 C 110.761719 356.011719 107.425781 354.46875 104.136719 352.828125 C 100.84375 351.1875 97.601562 349.449219 94.410156 347.621094 C 91.21875 345.792969 88.085938 343.871094 85.007812 341.859375 C 81.925781 339.847656 78.910156 337.746094 75.953125 335.558594 C 72.992188 333.375 70.101562 331.101562 67.277344 328.746094 C 64.453125 326.390625 61.695312 323.957031 59.011719 321.441406 C 56.328125 318.925781 53.722656 316.335938 51.1875 313.667969 C 48.652344 311.003906 46.199219 308.265625 43.824219 305.457031 C 41.453125 302.644531 39.160156 299.769531 36.953125 296.828125 C 36.460938 296.054688 36.042969 295.238281 35.707031 294.386719 C 35.371094 293.53125 35.117188 292.652344 34.949219 291.75 C 34.777344 290.847656 34.699219 289.9375 34.703125 289.019531 C 34.710938 288.101562 34.804688 287.191406 34.984375 286.292969 C 35.167969 285.390625 35.433594 284.515625 35.78125 283.667969 C 36.128906 282.816406 36.558594 282.007812 37.0625 281.242188 C 37.566406 280.476562 38.140625 279.761719 38.78125 279.105469 C 39.421875 278.449219 40.121094 277.859375 40.875 277.335938 L 55.6875 267.882812 C 56.082031 267.601562 56.488281 267.339844 56.910156 267.101562 C 57.332031 266.863281 57.761719 266.644531 58.207031 266.449219 C 58.648438 266.253906 59.101562 266.082031 59.5625 265.933594 C 60.023438 265.78125 60.488281 265.65625 60.960938 265.554688 C 61.433594 265.453125 61.914062 265.375 62.394531 265.320312 C 62.875 265.265625 63.359375 265.238281 63.84375 265.230469 C 64.328125 265.226562 64.808594 265.246094 65.292969 265.289062 C 65.773438 265.332031 66.253906 265.402344 66.726562 265.496094 C 67.203125 265.585938 67.671875 265.703125 68.136719 265.84375 C 68.601562 265.984375 69.054688 266.144531 69.503906 266.332031 C 69.949219 266.519531 70.386719 266.726562 70.8125 266.957031 C 71.238281 267.1875 71.652344 267.4375 72.050781 267.710938 C 72.453125 267.984375 72.835938 268.277344 73.207031 268.585938 C 73.578125 268.898438 73.933594 269.226562 74.269531 269.574219 C 74.609375 269.921875 74.925781 270.285156 75.226562 270.664062 C 75.527344 271.046875 75.808594 271.4375 76.070312 271.847656 C 77.75 273.976562 79.484375 276.054688 81.28125 278.082031 C 83.078125 280.113281 84.929688 282.089844 86.835938 284.015625 C 88.746094 285.9375 90.707031 287.808594 92.71875 289.621094 C 94.734375 291.433594 96.796875 293.191406 98.910156 294.886719 C 101.023438 296.582031 103.179688 298.21875 105.386719 299.792969 C 107.589844 301.367188 109.839844 302.878906 112.128906 304.328125 C 114.421875 305.773438 116.75 307.15625 119.121094 308.472656 C 121.488281 309.789062 123.894531 311.035156 126.332031 312.214844 C 128.773438 313.394531 131.246094 314.503906 133.746094 315.542969 C 136.25 316.585938 138.78125 317.554688 141.335938 318.449219 C 143.894531 319.347656 146.472656 320.171875 149.078125 320.921875 C 151.683594 321.671875 154.304688 322.347656 156.949219 322.949219 C 159.589844 323.550781 162.246094 324.078125 164.917969 324.53125 C 167.589844 324.984375 170.273438 325.359375 172.964844 325.660156 C 175.660156 325.960938 178.359375 326.183594 181.066406 326.332031 C 183.769531 326.476562 186.480469 326.550781 189.1875 326.542969 C 191.898438 326.539062 194.605469 326.453125 197.3125 326.296875 C 200.015625 326.136719 202.714844 325.902344 205.40625 325.589844 C 208.097656 325.277344 210.78125 324.890625 213.449219 324.425781 C 216.121094 323.964844 218.773438 323.425781 221.414062 322.8125 C 224.054688 322.199219 226.675781 321.511719 229.273438 320.75 C 231.875 319.988281 234.453125 319.152344 237.003906 318.242188 C 239.558594 317.335938 242.085938 316.355469 244.582031 315.304688 C 247.082031 314.257812 249.546875 313.136719 251.980469 311.945312 C 254.417969 310.753906 256.816406 309.496094 259.179688 308.171875 C 261.542969 306.84375 263.867188 305.453125 266.152344 303.996094 C 268.4375 302.539062 270.675781 301.019531 272.875 299.433594 C 275.074219 297.851562 277.226562 296.203125 279.332031 294.5 C 281.4375 292.792969 283.492188 291.027344 285.5 289.207031 C 287.503906 287.382812 289.457031 285.507812 291.355469 283.574219 C 293.257812 281.640625 295.097656 279.65625 296.886719 277.617188 C 298.675781 275.582031 300.402344 273.496094 302.070312 271.359375 C 302.332031 270.953125 302.609375 270.558594 302.90625 270.175781 C 303.207031 269.796875 303.523438 269.429688 303.859375 269.082031 C 304.195312 268.734375 304.550781 268.402344 304.917969 268.089844 C 305.289062 267.777344 305.671875 267.480469 306.070312 267.207031 C 306.472656 266.933594 306.882812 266.679688 307.308594 266.449219 C 307.734375 266.214844 308.167969 266.007812 308.613281 265.816406 C 309.0625 265.628906 309.515625 265.464844 309.980469 265.324219 C 310.441406 265.179688 310.910156 265.0625 311.386719 264.96875 C 311.859375 264.875 312.339844 264.804688 312.820312 264.757812 C 313.304688 264.710938 313.785156 264.691406 314.269531 264.691406 C 314.753906 264.695312 315.238281 264.722656 315.71875 264.773438 C 316.199219 264.828125 316.679688 264.902344 317.152344 265.003906 C 317.625 265.105469 318.09375 265.226562 318.554688 265.375 C 319.015625 265.523438 319.46875 265.695312 319.914062 265.886719 C 320.355469 266.082031 320.789062 266.296875 321.210938 266.535156 C 321.632812 266.769531 322.042969 267.027344 322.4375 267.308594 Z M 337.289062 276.699219 " fill-opacity="1" fill-rule="nonzero"/><g fill="#000000" fill-opacity="1"><g transform="translate(46.042836, 288.58737)"><g><path d="M 13.59375 9.109375 L 7.046875 1.296875 L 2.296875 2.75 L 0.015625 0.03125 L 21.25 -6.125 L 23.5 -3.4375 L 13.6875 16.328125 L 11.34375 13.53125 Z M 15.078125 6.171875 L 19.515625 -2.53125 L 10.171875 0.328125 Z M 15.078125 6.171875 "/></g></g></g><g fill="#000000" fill-opacity="1"><g transform="translate(78.850422, 322.348648)"><g><path d="M 13.75 -15.0625 L 20.953125 -10.03125 C 22.679688 -8.820312 23.785156 -7.503906 24.265625 -6.078125 C 24.742188 -4.648438 24.535156 -3.289062 23.640625 -2 C 22.992188 -1.070312 22.175781 -0.457031 21.1875 -0.15625 C 20.207031 0.132812 19.1875 0.078125 18.125 -0.328125 C 19.101562 0.628906 19.648438 1.703125 19.765625 2.890625 C 19.878906 4.078125 19.546875 5.226562 18.765625 6.34375 C 17.773438 7.757812 16.457031 8.492188 14.8125 8.546875 C 13.175781 8.609375 11.421875 7.984375 9.546875 6.671875 L 2.171875 1.515625 Z M 14.8125 -10.625 L 11.75 -6.234375 L 16.015625 -3.25 C 16.898438 -2.632812 17.734375 -2.347656 18.515625 -2.390625 C 19.296875 -2.441406 19.925781 -2.8125 20.40625 -3.5 C 20.894531 -4.195312 21.019531 -4.898438 20.78125 -5.609375 C 20.550781 -6.328125 19.984375 -7.003906 19.078125 -7.640625 Z M 10.03125 -3.78125 L 6.703125 0.984375 L 10.96875 3.96875 C 12.082031 4.738281 13.085938 5.128906 13.984375 5.140625 C 14.878906 5.148438 15.597656 4.765625 16.140625 3.984375 C 16.648438 3.253906 16.742188 2.460938 16.421875 1.609375 C 16.097656 0.765625 15.390625 -0.0351562 14.296875 -0.796875 Z M 10.03125 -3.78125 "/></g></g></g><g fill="#000000" fill-opacity="1"><g transform="translate(118.535342, 346.036314)"><g><path d="M 19.015625 6.765625 L 15.8125 5.625 L 18.609375 -2.265625 L 8.515625 -5.859375 L 5.71875 2.03125 L 2.5 0.890625 L 9.265625 -18.15625 L 12.484375 -17.015625 L 9.546875 -8.75 L 19.640625 -5.15625 L 22.578125 -13.421875 L 25.78125 -12.28125 Z M 19.015625 6.765625 "/></g></g></g><g fill="#000000" fill-opacity="1"><g transform="translate(165.123839, 358.577766)"><g><path d="M 6.03125 0.65625 L 2.640625 0.28125 L 4.828125 -19.8125 L 8.21875 -19.4375 Z M 6.03125 0.65625 "/></g></g></g><g fill="#000000" fill-opacity="1"><g transform="translate(199.072657, 359.944516)"><g><path d="M 5.71875 -3.703125 L 14.4375 -4.59375 L 14.75 -1.515625 L 2.640625 -0.265625 L 0.5625 -20.375 L 3.953125 -20.734375 Z M 5.71875 -3.703125 "/></g></g></g><g fill="#000000" fill-opacity="1"><g transform="translate(239.533485, 352.936571)"><g><path d="M 13.1875 -9.6875 L 3.59375 -6.1875 L 3.359375 -1.234375 L 0.03125 -0.015625 L 1.453125 -22.0625 L 4.734375 -23.265625 L 20 -7.328125 L 16.578125 -6.078125 Z M 10.9375 -12.09375 L 4.265625 -19.21875 L 3.765625 -9.46875 Z M 10.9375 -12.09375 "/></g></g></g><g fill="#000000" fill-opacity="1"><g transform="translate(282.320505, 333.511668)"><g><path d="M -4.015625 -22.046875 C -1.859375 -23.546875 0.476562 -24.3125 3 -24.34375 L 3.5625 -21.09375 C 1.15625 -20.9375 -0.820312 -20.320312 -2.375 -19.25 C -3.207031 -18.664062 -3.757812 -18.054688 -4.03125 -17.421875 C -4.3125 -16.785156 -4.257812 -16.191406 -3.875 -15.640625 C -3.488281 -15.085938 -2.9375 -14.769531 -2.21875 -14.6875 C -1.507812 -14.601562 -0.757812 -14.703125 0.03125 -14.984375 C 0.820312 -15.265625 1.695312 -15.535156 2.65625 -15.796875 C 3.625 -16.054688 4.546875 -16.265625 5.421875 -16.421875 C 6.304688 -16.578125 7.191406 -16.476562 8.078125 -16.125 C 8.972656 -15.769531 9.742188 -15.125 10.390625 -14.1875 C 11.398438 -12.738281 11.625 -11.175781 11.0625 -9.5 C 10.507812 -7.820312 9.3125 -6.335938 7.46875 -5.046875 C 6.195312 -4.171875 4.804688 -3.554688 3.296875 -3.203125 C 1.785156 -2.859375 0.300781 -2.78125 -1.15625 -2.96875 L -1.609375 -6.21875 C -0.242188 -6.03125 1.082031 -6.078125 2.375 -6.359375 C 3.675781 -6.640625 4.78125 -7.097656 5.6875 -7.734375 C 6.664062 -8.410156 7.304688 -9.113281 7.609375 -9.84375 C 7.910156 -10.582031 7.835938 -11.265625 7.390625 -11.890625 C 6.992188 -12.460938 6.4375 -12.785156 5.71875 -12.859375 C 5.007812 -12.941406 4.257812 -12.84375 3.46875 -12.5625 C 2.675781 -12.289062 1.800781 -12.015625 0.84375 -11.734375 C -0.113281 -11.460938 -1.023438 -11.238281 -1.890625 -11.0625 C -2.765625 -10.894531 -3.644531 -10.976562 -4.53125 -11.3125 C -5.414062 -11.65625 -6.175781 -12.285156 -6.8125 -13.203125 C -7.800781 -14.617188 -8.035156 -16.128906 -7.515625 -17.734375 C -6.992188 -19.347656 -5.828125 -20.785156 -4.015625 -22.046875 Z M -4.015625 -22.046875 "/></g></g></g><g fill="#000000" fill-opacity="1"><g transform="translate(316.395183, 306.109332)"><g><path d="M 13.03125 -15.40625 L 10.84375 -12.8125 L 4.453125 -18.21875 L -2.46875 -10.03125 L 3.921875 -4.625 L 1.71875 -2.03125 L -13.71875 -15.09375 L -11.515625 -17.6875 L -4.8125 -12.015625 L 2.109375 -20.203125 L -4.59375 -25.875 L -2.40625 -28.46875 Z M 13.03125 -15.40625 "/></g></g></g></svg>